<svg width="518" height="22" xmlns="http://www.w3.org/2000/svg" version="1.1">
 <g>
  <path stroke="null" id="svg_1" fill="blue" d="m0,12.78532l3.59723,-1.19908c3.59722,-1.19907 10.79166,-3.59722 17.98611,-3.59722c7.19444,0 14.38889,2.39815 21.58333,3.18954c7.19445,0.88731 14.38889,-0.07195 21.58333,0.81537c8.39352,-0.40769 14.38889,3.18954 21.58334,3.98092c7.19444,0.88732 13.66944,-3.18953 20.86389,-3.50129c7.19444,-0.40769 15.10833,2.70991 22.30277,2.70991c7.19445,0 14.38889,0 21.58334,-1.19908c7.19444,-1.19907 14.38889,-3.59722 21.58333,-4.00491c7.91389,-1.27101 14.38889,1.12713 21.58334,3.21352c7.19444,1.99047 14.38888,4.38861 21.58333,2.39815c7.19444,-2.08639 14.38889,-4.48454 21.58333,-5.37185c7.19445,-0.79139 14.38889,0.16787 21.58334,3.35741c7.19444,3.28546 14.38889,4.72435 21.58333,5.61166c7.19444,0.79139 14.38889,0.79139 21.58333,-2.80583c7.19445,-3.59722 14.62871,-7.19444 21.82315,-7.98583c7.19445,-0.88732 14.14908,1.27101 21.34352,1.19907c7.19445,0.07194 14.38889,-5.68361 21.58333,-5.20398c7.19445,0.47963 14.38889,6.71481 21.58334,8.39352c7.19444,1.6787 14.38889,-1.67871 21.58333,-3.18954c7.19445,-1.60676 14.38889,-1.60676 21.58334,-0.81537c7.19444,0.88731 14.38888,2.3262 21.58333,0.81537c7.19444,-1.60676 14.38889,-6.40306 21.58333,-8.39352c7.19445,-2.08639 14.38889,-1.12713 21.58334,0.38371c7.19444,1.60675 14.38889,4.0049 17.98611,5.20398l3.59722,1.19907l0,14.38889l-3.59722,0c-3.59722,0 -10.79167,0 -17.98611,0c-7.19445,0 -14.38889,0 -21.58334,0c-7.19444,0 -14.38889,0 -21.58333,0c-7.19445,0 -14.38889,0 -21.58333,0c-7.19445,0 -14.38889,0 -21.58334,0c-7.19444,0 -14.38889,0 -21.58333,0c-7.19445,0 -14.38889,0 -21.58334,0c-7.19444,0 -14.38888,0 -21.58333,0c-7.19444,0 -14.38889,0 -21.58333,0c-7.19445,0 -14.38889,0 -21.58334,0c-7.19444,0 -14.38889,0 -21.58333,0c-7.19444,0 -14.38889,0 -21.58333,0c-7.19445,0 -14.38889,0 -21.58334,0c-7.19444,0 -14.38889,0 -21.58333,0c-7.19445,0 -14.38889,0 -21.58333,0c-7.19445,0 -14.38889,0 -21.58334,0c-7.19444,0 -14.38889,0 -21.58333,0c-7.19445,0 -14.38889,0 -21.58334,0c-7.19444,0 -14.38888,0 -21.58333,0c-7.19444,0 -14.38889,0 -21.58333,0c-7.19445,0 -14.38889,0 -21.58334,0c-7.19444,0 -14.38888,0 -21.58333,0c-7.19444,0 -14.38889,0 -21.58333,0c-7.19445,0 -14.38889,0 -17.98611,0l-3.59723,0c0,-3.19753 0,-6.39506 0,12.78532l3.59723"/>
 </g>

</svg>