<?xml version="1.0" encoding="iso-8859-1"?>
<!-- Generator: Adobe Illustrator 19.0.0, SVG Export Plug-In . SVG Version: 6.00 Build 0)  -->
<svg version="1.1" id="Layer_1" xmlns="http://www.w3.org/2000/svg" xmlns:xlink="http://www.w3.org/1999/xlink" x="0px" y="0px"
	 viewBox="0 0 512.001 512.001" style="enable-background:new 0 0 512.001 512.001;" xml:space="preserve">
<path d="M32.052,461.991c0.214,1.651,0.875,3.243,1.891,4.562c0.03,0.039,0.051,0.081,0.081,0.119l33.393,41.809
	c1.777,2.226,4.471,3.521,7.318,3.521s5.541-1.296,7.318-3.521l26.074-32.644l26.074,32.644c1.777,2.226,4.471,3.521,7.318,3.521
	c2.847,0,5.541-1.296,7.318-3.521l26.074-32.644l26.074,32.644c1.777,2.226,4.471,3.521,7.318,3.521
	c2.847,0,5.541-1.296,7.318-3.521l30.58-38.287h19.594l30.58,38.287c1.777,2.226,4.471,3.521,7.318,3.521s5.541-1.296,7.318-3.521
	l26.074-32.644l26.074,32.644c1.777,2.226,4.471,3.521,7.318,3.521s5.541-1.296,7.318-3.521l26.074-32.644l26.074,32.644
	c1.777,2.226,4.471,3.521,7.318,3.521s5.541-1.296,7.318-3.521l33.392-41.809c0.03-0.037,0.052-0.08,0.081-0.119
	c1.256-1.634,1.966-3.664,1.966-5.726v-39.381c0-1.114,0-2.202,0-3.316v-80.887v-40.88c0-13.623-6.196-26.22-16.998-34.561
	c-0.024-0.019-0.05-0.034-0.074-0.052c-0.011-0.009-0.02-0.02-0.032-0.029c-5.152-3.954-10.978-6.657-17.178-8.009V54.01
	c0-4.382-3.039-8.179-7.313-9.139c0,0-123.857-27.823-123.86-27.824L239.635,0.213c-0.199-0.045-0.398-0.067-0.598-0.099
	c-2.004-0.316-4.04,0.026-5.816,0.963c-0.521,0.275-1.024,0.588-1.491,0.962c-2.222,1.777-3.514,4.468-3.514,7.313v173.467
	c0,15.611-4.943,30.283-13.567,42.303c-0.307,0.356-0.587,0.737-0.838,1.136c-8.096,10.834-19.235,19.403-32.471,24.393
	c-7.904-3.207-16.486-4.949-25.362-4.949c-17.153,0-33.354,6.503-45.851,18.324c-15.781,6.266-30.416,15.944-42.432,28.105
	c-3.635,3.679-3.601,9.61,0.079,13.246c3.68,3.635,9.61,3.599,13.246-0.079c9.184-9.294,20.159-16.886,32.02-22.185
	c0.056,0.062,0.116,0.122,0.172,0.185c16.927,18.592,28.566,42.062,33.018,66.807c1.437,7.988,2.154,16.103,2.154,24.218v34.437
	H50.709v-29.696c0-15.802,3.441-31.012,10.226-45.204c2.232-4.667,0.256-10.26-4.411-12.49c-4.668-2.233-10.26-0.256-12.49,4.411
	c-8,16.736-12.057,34.663-12.057,53.285c0,0,0,39.061,0,39.064c0.001,9.377,0,18.752,0,28.128c0,4.856,0,9.713,0,14.568
	C31.976,461.215,32.002,461.605,32.052,461.991z M74.735,487.625l-13.924-17.433H88.66L74.735,487.625z M141.522,487.625
	l-13.924-17.433h27.849L141.522,487.625z M208.308,487.625l-13.924-17.433h27.849L208.308,487.625z M303.7,487.625l-13.924-17.433
	h27.849L303.7,487.625z M370.486,487.625l-13.924-17.433h27.849L370.486,487.625z M437.272,487.625l-13.924-17.433h27.849
	L437.272,487.625z M461.298,408.763c-19.12,0-38.268,0.322-57.385,0c-1.068-0.017-2.158,0.035-3.18-0.112
	c1.288-23.112,19.611-45.111,39.777-54.884c6.51-3.156,13.64-5.466,20.829-6.402c-1.044,18.493-0.041,37.421-0.041,55.986
	C461.298,405.155,461.298,406.958,461.298,408.763z M321.887,245.264v-4.66h24.861c3.123,4.976,8.645,8.294,14.953,8.294
	c9.754,0,17.66-7.907,17.66-17.66c0-9.754-7.907-17.66-17.66-17.66c-6.308,0-11.829,3.318-14.953,8.294h-24.861v-31.041h24.861
	c3.123,4.976,8.645,8.294,14.953,8.294c9.754,0,17.66-7.907,17.66-17.66c0-9.754-7.907-17.66-17.66-17.66
	c-6.309,0-11.829,3.318-14.953,8.294h-24.861v-31.041h24.861c3.123,4.976,8.645,8.294,14.953,8.294c9.754,0,17.66-7.907,17.66-17.66
	s-7.907-17.66-17.66-17.66c-6.308,0-11.829,3.318-14.953,8.294h-24.861V91.283h24.861c3.123,4.976,8.645,8.294,14.953,8.294
	c9.754,0,17.66-7.907,17.66-17.66s-7.907-17.66-17.66-17.66c-6.308,0-11.829,3.318-14.953,8.294h-24.861V37.891l105.127,23.615
	v200.572c0,1.158,0.21,2.265,0.594,3.29c-0.456-1.216-24.449,9.319-26.711,10.451c-8.556,4.277-16.789,9.295-24.447,15.031
	c-3.884,2.91-4.864,8.255-2.412,12.324c0.164,0.271,0.342,0.537,0.536,0.796c3.101,4.14,8.973,4.983,13.112,1.881
	c19.313-14.468,42.195-23.752,66.126-26.817c0.14-0.018,0.282-0.03,0.422-0.047c4.526,4.628,7.065,10.794,7.065,17.377v32.095
	c-0.703,0.081-1.399,0.191-2.098,0.287c-0.526,0.074-1.057,0.135-1.58,0.217c-15.351,2.412-30.274,9.019-42.349,18.788
	c-11.272,9.119-20.365,20.764-26.249,34.036c-3.772,8.506-6.249,17.672-7.222,26.928c-0.001,0.016-0.004,0.031-0.006,0.047h-50.126
	c1.936-28.556,12.671-56.126,30.719-78.502c3.046-3.777,2.679-9.198-0.701-12.536c-0.187-0.186-0.391-0.361-0.597-0.533
	c-0.039-0.032-0.074-0.069-0.119-0.106c-4.029-3.248-9.924-2.615-13.171,1.41c-0.172,0.214-0.332,0.436-0.503,0.649
	c-15.45,19.359-26.328,42.501-31.343,66.753c-1.541,7.45-2.57,15.02-3.036,22.613c-0.005,0.085-0.015,0.169-0.02,0.254h-77.086
	v-34.437c0-12.819-1.075-25.455-3.183-37.857C282.025,335.401,321.887,294.914,321.887,245.264z M246.956,21.058l56.199,12.625
	V72.55h-56.199V21.058z M246.956,91.283h56.199v31.041h-56.199V91.283z M246.956,141.057h56.199v31.041h-56.199V141.057z
	 M246.596,190.831h56.558v31.041h-64.928C242.762,212.265,245.644,201.786,246.596,190.831z M212.961,253.937
	c4.952-3.978,9.444-8.455,13.432-13.332h76.761v4.66c0,39.989-32.533,72.521-72.521,72.521c-0.668,0-1.338,0.006-2.009,0.017
	c-0.407,0.006-5.162-16.942-5.777-18.683c-2.278-6.433-4.692-12.857-8.003-18.842c-3.71-6.705-8.652-12.831-14.415-17.888
	C204.867,259.908,209.055,257.075,212.961,253.937z M147.704,299.237c-0.863-1.536-1.755-3.056-2.675-4.561
	c-0.586-0.958-1.183-1.91-1.791-2.854c-4.294-6.664-9.044-13.063-14.275-19.024c7.934-5.438,17.27-8.361,27.021-8.361
	c10.191,0,20.266,3.247,28.524,9.222c9.372,6.78,14.762,16.147,18.831,26.766c1.521,3.971,2.95,7.97,4.232,12.025
	c6.321,19.995,9.509,40.907,9.509,61.874v34.437h-49.955v-34.437C167.124,348.191,160.52,322.034,147.704,299.237z M50.709,430.811
	h410.589v20.648h-57.42h-66.786h-66.786h-28.607h-66.786h-66.784h-57.42V430.811z"/>
<g>
</g>
<g>
</g>
<g>
</g>
<g>
</g>
<g>
</g>
<g>
</g>
<g>
</g>
<g>
</g>
<g>
</g>
<g>
</g>
<g>
</g>
<g>
</g>
<g>
</g>
<g>
</g>
<g>
</g>
</svg>
