<svg xmlns="http://www.w3.org/2000/svg" width="496" height="496" xml:space="preserve"><path fill="currentColor" d="m304 71.543 16.344 11.672 9.32 74.617 55.105-36.734a291.367 291.367 0 0 0 8.184 3.391l18.461 64.609 64.242-45.883c6.75.48 13.527.785 20.344.785v-16c-55.895 0-109.48-17.168-154.961-49.664L304 51.887V48h-26.238l-16-48H234.23l-16 48H192v3.887l-37.039 26.457C109.48 110.832 55.895 128 0 128v16c6.816 0 13.594-.305 20.336-.785l64.238 45.883 18.465-64.609a272.763 272.763 0 0 0 8.184-3.391l55.105 36.734 9.32-74.617L192 71.543V96h13.762l-28 112H144v48h16v41.07C114.512 313.609 78.449 351.672 65.824 400H48v48H33.754l-7.992 32H0v16h496v-16h-25.754l-7.988-32H448v-48h-17.832c-12.617-48.328-48.672-86.391-94.168-102.93V256h16v-48h-33.762l-28-112H304V71.543zm147.84 69.016-31.266 22.336-9.086-31.816c13.176 4.128 26.649 7.335 40.352 9.48zm-84.07-27.352-25.434 16.961L338 95.48c9.633 6.512 19.535 12.497 29.77 17.727zM75.426 162.895 44.16 140.559c13.711-2.152 27.176-5.352 40.352-9.48l-9.086 31.816zm78.246-32.727-25.441-16.961c10.234-5.23 20.137-11.215 29.777-17.727l-4.336 34.688zM245.77 16h4.469l10.672 32h-25.805l10.664-32zM208 64h80v16h-80V64zm73.754 64 4.008 16h-75.523l4-16h67.515zm-63.516-16 4-16h51.516l4.008 16h-59.524zM64 416h32v32H64v-32zm385.754 48 4.008 16H42.246l4.012-16h403.496zM112 448v-32h32v32h-32zm48 0v-32h32v32h-32zm48 0v-32h32v32h-32zm48 0v-32h32v32h-32zm48 0v-32h32v32h-32zm48 0v-32h32v32h-32zm80-32v32h-32v-32h32zm-18.344-16H82.344c16.578-56.168 68.938-96 128.191-96h74.922c59.262 0 111.621 39.832 128.199 96zM176.008 292.207V256h144v36.207H320c-11.16-2.68-22.711-4.207-34.535-4.207h-74.922c-11.832 0-23.383 1.527-34.535 4.207zM336 224v16H160v-16h176zm-42.238-48H280v16h17.762l4 16H194.238l4-16H264v-16h-61.762l4-16h83.523l4.001 16z"/></svg>