<svg fill="currentColor" xmlns="http://www.w3.org/2000/svg" viewBox="0 0 122.88 88.39" style="enable-background:new 0 0 122.88 88.39" xml:space="preserve"><path d="M87.51 21.16c5.26 1.45 10.79 1.84 16.58 1.18 1.42-.16 2.81-.35 4.16-.53 6.46-.84 11.86-1.32 13.78 3.52 3.39 8.55-4.28 27.07-8.32 34.56-8.32 15.43-24.9 32.69-44.08 27.57-2.99-.8-5.68-2.1-8.08-3.86 6.3-3.51 11.28-8.9 15.13-15.24l-.01.02c4.77.26 9.73 2.78 14.27 5.44.33-5.99-5.46-9.97-10.62-12.45 4.14-9.29 6.33-19.72 7.01-29.03.2-2.88.31-6.81.18-11.18zM2.61 6.51c1.56-1.48 3.92-1.87 6.6-1.7 5.03.31 10.23 1.86 15.11 3.18 10.61 2.86 20.99 1.93 31.1-2.74 1.36-.63 2.69-1.28 3.98-1.9C65.56.37 70.8-1.9 74.31 2.3c6.21 7.42 4.68 28.44 3.13 37.25-3.2 18.15-14.03 40.87-34.88 42.1-11.06.65-20.49-5.57-28.61-17.32-5.17-8-8.9-16.22-11.18-24.67-1.64-6.16-5.23-28.32-.16-33.15zM12.94 34.3c-1.91-.5-3.01-1.12-3.38-1.85-1.47-2.92 10.66-10.29 19.22-3.52 12.17 9.47-11.52 6.65-15.84 5.37zm19.69 28.49c-3.23-2.31-4.96-5.16-5.9-9.02 10.67 5.4 20.66 5.01 29.96-2.42-.37 3.29-1.44 6.24-3.28 8.83-5.43 7.65-13.37 7.9-20.78 2.61zm34.44-32.73c1.79-.84 2.76-1.65 2.99-2.44.92-3.14-12.35-8.19-19.54.03-10.25 11.53 12.54 4.45 16.55 2.41zm23.75 12.01c5.04-4.04 11.94-3.22 16.74.73 1.22 1.01 4.57 3.95 2.64 5.56-.53.44-1.41.69-2.63.75-2.98.34-7.32-.28-10.78-1.71-2.72-1.1-4.78-2.57-5.97-5.33z" style="fill-rule:evenodd;clip-rule:evenodd"/></svg>