<svg id="Layer_1" fill="currentColor" enable-background="new 0 0 512 512" viewBox="0 0 512 512" xmlns="http://www.w3.org/2000/svg">
                    <g id="Itinerary_2_">
                      <path d="m407 0h-302c-20.678 0-37.5 16.822-37.5 37.5v105c.307 9.916 14.696 9.909 15 0v-105c0-12.407 10.094-22.5 22.5-22.5h302c12.406 0 22.5 10.093 22.5 22.5v319.38c.307 9.916 14.696 9.909 15 0v-319.38c0-20.678-16.822-37.5-37.5-37.5z">
                      </path>
                      <path d="m437 384.38c-4.143 0-7.5 3.358-7.5 7.5v82.62c0 12.407-10.094 22.5-22.5 22.5h-302c-12.406 0-22.5-10.093-22.5-22.5v-297c-.307-9.916-14.696-9.909-15 0v297c0 20.678 16.822 37.5 37.5 37.5h302c20.678 0 37.5-16.822 37.5-37.5v-82.62c0-4.142-3.357-7.5-7.5-7.5z">
                      </path>
                      <path d="m135.353 441.413 19.444 18.519c2.976 2.835 7.686 2.747 10.555-.208l30.556-31.481c2.885-2.972 2.814-7.721-.158-10.605s-7.721-2.814-10.605.158l-25.381 26.15-14.064-13.395c-2.999-2.856-7.746-2.74-10.604.259-2.859 2.999-2.742 7.746.257 10.603z">
                      </path>
                      <path d="m135.353 377.033 19.444 18.519c2.976 2.835 7.686 2.747 10.555-.208l30.556-31.482c2.885-2.973 2.814-7.721-.158-10.605-2.972-2.886-7.721-2.814-10.605.158l-25.381 26.151-14.064-13.395c-2.999-2.856-7.746-2.74-10.604.259-2.859 2.999-2.742 7.746.257 10.603z">
                      </path>
                      <path d="m145.698 301.791c-2.999-2.856-7.746-2.74-10.604.259-2.857 3-2.741 7.747.258 10.604l19.444 18.519c2.976 2.835 7.686 2.747 10.555-.208l30.556-31.481c2.885-2.972 2.814-7.721-.158-10.605-2.972-2.885-7.721-2.813-10.605.158l-25.381 26.15z">
                      </path>
                      <path d="m369.525 431.259h-140c-9.916.307-9.909 14.696 0 15h140c9.917-.307 9.909-14.696 0-15z">
                      </path>
                      <path d="m369.525 366.879h-140c-9.916.307-9.909 14.696 0 15h140c9.917-.307 9.909-14.696 0-15z">
                      </path>
                      <path d="m371.475 302.5h-140c-9.916.307-9.909 14.696 0 15h140c9.916-.307 9.909-14.696 0-15z">
                      </path>
                      <path d="m256 50c-64.695 1.835-90.984 66.635-65.106 121.096l34.468 76.594c11.685 26.245 49.602 26.234 61.278 0l34.467-76.593c25.894-54.481-.453-119.279-65.107-121.097zm51.427 114.94-34.467 76.594c-6.467 14.528-27.457 14.521-33.92 0l-34.467-76.593c-21.077-44.84-2.627-97.815 51.427-99.941 54.063 2.13 72.501 55.107 51.427 99.94z">
                      </path>
                      <path d="m256 80c-24.813 0-45 20.187-45 45 2.262 59.617 87.747 59.6 90-.001 0-24.812-20.187-44.999-45-44.999zm0 75c-16.542 0-30-13.458-30-30 1.508-39.744 58.498-39.734 60 0 0 16.542-13.458 30-30 30z">
                      </path>
                    </g>
                  </svg>