<svg viewBox="0 0 512 512" xmlns="http://www.w3.org/2000/svg"><path d="m154.367188 289.152344c0-26.984375-21.953126-48.933594-48.933594-48.933594-26.984375 0-48.933594 21.949219-48.933594 48.933594 0 26.980468 21.949219 48.933594 48.933594 48.933594 26.980468 0 48.933594-21.953126 48.933594-48.933594zm-67.867188 0c0-10.441406 8.492188-18.933594 18.933594-18.933594 10.4375 0 18.933594 8.492188 18.933594 18.933594 0 10.4375-8.492188 18.933594-18.933594 18.933594s-18.933594-8.496094-18.933594-18.933594zm0 0"/><path d="m406.566406 56.5c-26.980468 0-48.933594 21.949219-48.933594 48.933594 0 26.980468 21.953126 48.933594 48.933594 48.933594 26.980469 0 48.933594-21.953126 48.933594-48.933594 0-26.984375-21.949219-48.933594-48.933594-48.933594zm0 67.867188c-10.4375 0-18.933594-8.496094-18.933594-18.933594 0-10.441406 8.496094-18.933594 18.933594-18.933594 10.441406 0 18.933594 8.492188 18.933594 18.933594 0 10.4375-8.492188 18.933594-18.933594 18.933594zm0 0"/><path d="m512 105.433594c0-58.136719-47.296875-105.433594-105.433594-105.433594-58.136718 0-105.433594 47.296875-105.433594 105.433594 0 24.675781 8.703126 48.667968 24.511719 67.582031l54.265625 68.316406c-10.308594 6.441407-18.132812 16.496094-21.6875 28.386719h-58.554687c-35.476563 0-64.335938 28.859375-64.335938 64.332031 0 35.472657 28.859375 64.332031 64.335938 64.332031h94.621093c17.179688 0 31.15625 13.976563 31.15625 31.15625 0 17.179688-13.976562 31.152344-31.15625 31.152344h-238.421874c-.269532-16.28125-8.28125-30.710937-20.515626-39.75l51.003907-64.210937c15.808593-18.910157 24.511719-42.902344 24.511719-67.578125 0-58.136719-47.296876-105.433594-105.433594-105.433594-58.136719 0-105.433594 47.296875-105.433594 105.433594 0 24.675781 8.703125 48.667968 24.511719 67.578125l51.003906 64.210937c-12.449219 9.195313-20.539063 23.96875-20.539063 40.597656 0 27.824219 22.636719 50.460938 50.457032 50.460938 16.96875 0 31.996094-8.429688 41.144531-21.308594h247.710937c33.722657 0 61.15625-27.433594 61.15625-61.152344s-27.433593-61.15625-61.15625-61.15625h-94.621093c-18.933594 0-34.335938-15.402343-34.335938-34.332031 0-18.929687 15.402344-34.332031 34.335938-34.332031h58.910156c6.582031 20.222656 25.601563 34.886719 47.988281 34.886719 27.824219 0 50.457032-22.636719 50.457032-50.460938 0-18.039062-9.523438-33.890625-23.800782-42.8125l54.265625-68.316406c15.808594-18.914063 24.511719-42.90625 24.511719-67.582031zm-464.375 232.171875c-11.363281-13.542969-17.625-30.75-17.625-48.453125 0-41.59375 33.839844-75.433594 75.433594-75.433594s75.433594 33.839844 75.433594 75.433594c0 17.703125-6.261719 34.910156-17.625 48.453125l-57.808594 72.769531-57.550782-72.453125zm57.808594 144.394531c-11.28125 0-20.457032-9.175781-20.457032-20.457031s9.175782-20.457031 20.457032-20.457031 20.457031 9.175781 20.457031 20.457031-9.175781 20.457031-20.457031 20.457031zm301.132812-177.394531c-11.28125 0-20.457031-9.179688-20.457031-20.460938s9.175781-20.457031 20.457031-20.457031 20.457032 9.175781 20.457032 20.457031-9.175782 20.460938-20.457032 20.460938zm57.808594-150.714844-57.808594 72.765625-57.550781-72.453125-.257813-.3125c-11.363281-13.542969-17.625-30.753906-17.625-48.457031 0-41.59375 33.839844-75.433594 75.433594-75.433594s75.433594 33.839844 75.433594 75.433594c0 17.703125-6.261719 34.910156-17.625 48.457031zm0 0"/></svg>