<svg viewBox="0 0 61.229 61" fill="currentColor" xmlns="http://www.w3.org/2000/svg"><path d="M49.078 43.965a3.017 3.017 0 0 0 2.266-.367 3.011 3.011 0 0 0 1.343-1.864 3.005 3.005 0 0 0-2.23-3.609 2.988 2.988 0 0 0-2.27.367 2.98 2.98 0 0 0-1.34 1.863c-.183.778-.054 1.583.368 2.266s1.082 1.16 1.863 1.344zm-.285-3.149v-.004a.995.995 0 0 1 .973-.769 1 1 0 0 1 .973 1.23.979.979 0 0 1-.446.622.991.991 0 0 1-.758.12.99.99 0 0 1-.742-1.199zm0 0"/><path d="m59.121 58.004 1.461-6.188a1.003 1.003 0 0 0-.125-.754l-5.129-8.3c.984-3.727.54-7.645-1.27-11.051l-.972-1.84a.993.993 0 0 0-.656-.508.992.992 0 0 0-.809.16l-1.695 1.211c-3.024 2.157-5.184 6.22-6.07 9.461l-8.133 5.028a1.01 1.01 0 0 0-.45.62l-1.492 6.329c-.707-.024-1.43-.04-2.168-.047V28.148l.137-2.066a.982.982 0 0 0-.137-.531v-8.77L55 7.04a1.001 1.001 0 0 0-.18-1.902L31.613.28V.113h-2v25.055l-10.445 1.453a3.964 3.964 0 0 0-1.273-4.7 3.991 3.991 0 0 0-2.965-.769 3.984 3.984 0 0 0-2.64 1.551 3.97 3.97 0 0 0-.77 2.965c.07.504.238.977.472 1.398L1.977 23.184a1.009 1.009 0 0 0-.93.105c-.27.188-.434.496-.434.824v2.934c0 .355.192.687.504.863l9.453 5.45.754 5.394.219 15.621C3.832 56.422.234 59.145 0 59.325l1.227 1.577c.09-.066 8.964-6.789 29.386-6.789 20.336 0 29.301 6.723 29.387 6.79l1.227-1.579c-.098-.074-.786-.594-2.106-1.32zM31.703 2.344l19.547 4.09-19.625 8.175zM57.781 54.96l-1.386-3.727a1.021 1.021 0 0 0-.368-.472L53.13 48.75c.52-.965 1.031-2.313 1.418-3.45l3.992 6.462zM51.09 32.363l.762-.547.441.832a13.23 13.23 0 0 1 1.074 9.73c-.004.013-.031.11-.031.122-.02.055-.035.11-.043.145v.003c-.402 1.399-1.164 3.66-1.824 4.961l-.16-.039c-.04-.007-.079 0-.118-.004l-.949-.226a1.01 1.01 0 0 0-.887.219 1.01 1.01 0 0 0-.34.847l.16 1.766-3.14-.742.934-1.508c.168-.274.195-.613.074-.91a1.007 1.007 0 0 0-.695-.59l-1.223-.29c0-.07 0-.144.004-.218.008-1.457.281-3.426.527-4.73l.024-.102c.718-2.937 2.672-6.77 5.41-8.719zM37.125 46.707l6.246-3.86c-.008.051-.012.106-.02.157-.019.156-.038.309-.054.465l-.035.3c-.016.145-.028.29-.043.434l-.024.305c-.011.152-.023.297-.03.445-.005.086-.013.176-.017.262-.011.23-.02.453-.02.668-.003.195-.003.387.005.578l-3.313.473c-.203.03-.39.12-.539.261l-2.91 2.711zm3.29 2.164 3.968-.57-.778 1.258a1.013 1.013 0 0 0-.074.91c.125.297.383.515.696.59l5.84 1.379a.99.99 0 0 0 .883-.219c.241-.211.37-.524.343-.844l-.14-1.563 3.476 2.415 1.64 4.39c-3.94-1.695-10.331-3.668-19.554-4.297zm-13.153 3.305-4.055-15.078-.703-5.067 7.11-2.504v22.598c-.802.008-1.587.023-2.352.05zm-5.774-13.762 3.664 13.625-.246.035-5.98-8.707a.987.987 0 0 0-.961-.422.998.998 0 0 0-.813.668l-3.375 10.008-.246.035-.195-14.105zm-3.894-4.852-.79 1.047-1.05-.793.129-4.718.3-.043zm-3.707-9.652a1.986 1.986 0 0 1 1.597-.797c.434 0 .852.14 1.203.407a1.998 1.998 0 0 1-.93 3.574v.004A2.006 2.006 0 0 1 13.5 25.39a1.975 1.975 0 0 1 .387-1.48zM2.613 26.47v-.895l9.95 3.86a.985.985 0 0 0 .5.058l.812-.113-.133 4.898a.996.996 0 0 0 .399.825l2.254 1.707a1.008 1.008 0 0 0 1.402-.195l1.703-2.259a.996.996 0 0 0 .156-.902l-1.465-4.676 11.422-1.59v.22l-8.547 3.007c-.449.16-.722.613-.656 1.082l.688 4.953-7.922 1.102-.692-4.95a.991.991 0 0 0-.492-.73zm15.797 19.68 4.336 6.312c-2.476.223-4.73.539-6.777.922zm0 0"/></svg>