<svg xmlns="http://www.w3.org/2000/svg" viewBox="0 0 510.501 510.501" style="enable-background:new 0 0 510.501 510.501" xml:space="preserve"><path d="M347.752 182.717h-102.4c-5.12 0-8.533 3.413-8.533 8.533v93.867c0 5.12 3.413 8.533 8.533 8.533h102.4c5.12 0 8.533-3.413 8.533-8.533V191.25c0-5.119-3.413-8.533-8.533-8.533zm-8.534 51.2h-34.133v-34.133h34.133v34.133zm-51.2-34.133v34.133h-34.133v-34.133h34.133zm-34.133 76.8v-25.6h85.333v25.6h-85.333z"/><path d="m507.325 263.784-16.213-56.32c-11.947-39.253-48.64-67.413-90.453-67.413h-69.973V84.346c16.212 2.854 37.143 4.505 59.733 4.505 87.04 0 93.867-19.627 93.867-25.6s-6.827-25.6-93.867-25.6c-22.955 0-44.206 1.702-60.523 4.642-1.287-2.881-4.072-4.642-7.744-4.642h-34.133c-3.671 0-6.456 1.761-7.744 4.642-16.317-2.94-37.568-4.642-60.523-4.642-87.04 0-93.867 19.627-93.867 25.6s6.827 25.6 93.867 25.6c22.59 0 43.522-1.651 59.733-4.505v55.705c-49.493 0-90.453 38.4-93.867 87.04l-89.994 25.831a41.865 41.865 0 0 0-8.389-1.653l-33.884-58.312c-6.827-11.947-23.04-16.213-34.987-9.387s-16.213 23.04-9.387 34.987l34.61 59.561c-3.882 9.822-4.009 20.989.218 31.339L3.858 373.864c-7.68 11.947-3.413 27.307 8.533 34.987 4.267 2.56 9.387 3.413 13.653 3.413 8.533 0 17.067-4.267 22.187-12.8l39.286-63.339c5.98-.551 11.507-2.327 17.034-5.781.174-.095.342-.201.514-.299l86.526 31.019c.853.853 1.707.853 2.56.853h66.856l-38.161 44.72a33.83 33.83 0 0 0-11.628-2.054c-18.773 0-34.133 15.36-34.133 34.133 0 18.773 15.36 34.133 34.133 34.133 18.773 0 34.133-15.36 34.133-34.133 0-8.569-3.207-16.421-8.472-22.432l46.394-54.368h67.834l31.43 53.574c-5.689 6.104-9.187 14.274-9.187 23.226 0 18.773 15.36 34.133 34.133 34.133 18.773 0 34.133-15.36 34.133-34.133 0-18.773-15.36-34.133-34.133-34.133-3.506 0-6.892.537-10.082 1.53l-25.929-44.197h61.611c24.747 0 46.933-11.093 62.293-30.72 14.509-19.625 18.776-44.372 11.949-67.412zm-296.107 192c-9.387 0-17.067-7.68-17.067-17.067s7.68-17.067 17.067-17.067c2.351 0 4.595.482 6.638 1.352.315.42.66.826 1.042 1.208.824.412 1.847.822 2.876 1.138 3.954 3.133 6.51 7.963 6.51 13.369.001 9.387-7.679 17.067-17.066 17.067zm213.334-17.067c0 9.387-7.68 17.067-17.067 17.067s-17.067-7.68-17.067-17.067c0-5.531 2.678-10.454 6.789-13.578a6.18 6.18 0 0 1 .891-.076 10.1 10.1 0 0 0 2.223-1.807 16.88 16.88 0 0 1 7.164-1.606c9.387.001 17.067 7.681 17.067 17.067zm45.011-238.678a74.522 74.522 0 0 1 4.482 11.691l16.213 56.32a66.55 66.55 0 0 1 1.701 8.386c.001.049.006.098.006.147H423.699c-6.827.853-11.947-2.56-14.507-5.12-5.973-5.12-10.24-12.8-10.24-20.48v-17.067c0-18.773 15.36-34.133 34.133-34.133v-.853h35.84c.222.37.429.74.638 1.109zm-6.611-136.788c-10.24 4.267-34.987 8.533-72.533 8.533-23.04 0-44.373-1.707-59.733-5.12v-6.827c15.36-3.413 36.693-5.12 59.733-5.12 37.546 0 62.293 4.267 72.533 8.534zm-243.2 8.533c-37.547 0-62.293-4.267-72.533-8.533 10.24-3.413 34.987-8.533 72.533-8.533 23.04 0 44.373 1.707 59.733 5.12v6.827c-15.36 3.412-36.693 5.119-59.733 5.119zm76.8 1.707V54.717h17.067v85.333h-17.067V73.491zM99.765 313.177c-.101.086-.201.173-.303.258-.289.237-.583.47-.884.695-.264.176-.516.363-.759.557a23.69 23.69 0 0 1-1.801 1.15c-5.973 3.413-12.8 4.267-19.627 2.56-4.286-1.224-8.566-3.772-11.906-7.317a23.914 23.914 0 0 1-2.601-3.776.891.891 0 0 1-.385-.084c-.159-.255-.319-.508-.468-.769-5.112-8.947-4.003-20.286 1.894-28.284 2.239-2.751 4.863-4.731 7.492-6.703 4.267-2.56 8.533-3.413 12.8-3.413 7.801 0 15.594 4.287 20.787 10.889.142.365.32.719.546 1.058.104 0 .194.014.274.036.195.272.394.539.58.818 4.193 8.387 4.255 17.594.206 25.199a27.006 27.006 0 0 1-5.369 6.716 32.72 32.72 0 0 1-.476.41zm25.519-12.975a37.72 37.72 0 0 0 .175-12.638 41.005 41.005 0 0 0-.381-2.447h69.074c5.12 0 8.533 4.267 8.533 8.533 0 5.12-4.267 8.533-8.533 8.533h-69.12c.096-.671.177-1.328.252-1.981zM27.752 198.077c1.707-.853 2.56-.853 4.267-.853 2.56 0 5.12.853 6.827 4.267l30.661 51.954c-.944.329-1.882.701-2.813 1.102-1.603.609-3.205 1.343-4.808 2.411a43.969 43.969 0 0 0-6.909 4.981l-30.638-51.914c-1.707-4.268-.854-9.388 3.413-11.948zm5.973 193.707c-2.56 3.413-7.68 5.12-11.947 2.56-3.413-2.56-5.12-7.68-2.56-11.947l34.987-57.173c4.267 3.413 9.387 6.827 14.507 9.387l-34.987 57.173zm447.147-70.827c-11.093 15.36-29.013 23.893-47.787 23.893h-74.453a8.082 8.082 0 0 0-4.665 0H195.858l-70.938-25.725 69.231-.729c14.507 0 26.453-11.947 25.6-25.6 0-14.507-11.947-26.453-25.6-25.6h-77.479a38.899 38.899 0 0 1-1.881-2.56l81.92-23.04c3.413-1.707 5.973-5.12 5.973-8.533 0-42.667 34.133-76.8 76.8-76.8h4.499c1.169.55 2.525.853 4.035.853h34.133c1.51 0 2.865-.304 4.035-.853h74.472c22.084 0 43.032 10.152 57.376 26.453h-24.949c-28.16 0-51.2 23.04-51.2 51.2v17.067c0 11.947 5.973 25.6 16.213 33.28 6.827 5.973 14.507 9.387 23.04 9.387h70.826c-1.381 9.737-5.108 19.021-11.092 27.307z"/></svg>