<svg xmlns="http://www.w3.org/2000/svg" viewBox="0 0 512.001 512.001" style="enable-background:new 0 0 512.001 512.001" xml:space="preserve"><path d="M446.459 183.142a7.62 7.62 0 0 0-6.547-3.119l-10.418.528V82.854a7.628 7.628 0 0 0-7.628-7.628h-21.162a7.628 7.628 0 0 0-7.628 7.628v99.54l-1.26.064h-.001l-73.175 3.155-28.786-27.589c1.569-10.232-.835-20.522-6.833-29.07a40.708 40.708 0 0 0-4.648-5.503l3.436-24.048a24.08 24.08 0 0 0 14.891-6.442c4.754-4.425 7.501-10.42 7.733-16.879l1.796-49.915c.233-6.46-2.077-12.636-6.502-17.392-4.425-4.755-10.419-7.501-16.879-7.733L254.35.015c-13.397-.469-24.644 10.008-25.125 23.381l-1.795 49.915c-.233 6.46 2.077 12.636 6.502 17.392a24.84 24.84 0 0 0 2.307 2.173l-2.809 15.438-9.481-1.662a17.456 17.456 0 0 0-2.143-.227l4.938-28.175c.801-4.568-.232-9.184-2.907-12.995-2.675-3.812-6.664-6.351-11.233-7.152l-39.27-6.882c-9.454-1.662-18.491 4.685-20.147 14.138l-2.294 13.096-13.919-3.479a7.625 7.625 0 0 0-9.353 6.034l-14.928 81.977a7.626 7.626 0 0 0 5.714 8.781l15.48 3.739-4.964 28.325c-1.657 9.452 4.686 18.491 14.139 20.147l39.27 6.882c.718.126 1.432.19 2.143.226l-5.857 33.422-24.37 83.413-68.018 65.142c-.027.026-.051.056-.078.082l-.037.033-19.806 19.806a7.626 7.626 0 0 0 0 10.786l53.559 53.56a7.625 7.625 0 0 0 5.393 2.234h.014a7.63 7.63 0 0 0 5.399-2.254l5.985-6.029c7.024-7.076 7.654-18.308 1.464-26.126l-12.076-15.251 70.075-67.954a26.172 26.172 0 0 0 2.963-3.516c2.393-2.945 4.098-6.272 5.053-9.838l19.541-70.605 39.756 70.182v128.877a7.628 7.628 0 0 0 7.628 7.628h75.745a7.631 7.631 0 0 0 7.627-7.656l-.031-8.495c-.038-9.972-7.534-18.358-17.439-19.509l-19.898-2.312V362.372c0-1.464-.128-2.927-.391-4.464-.39-3.775-1.538-7.334-3.384-10.531l-43.225-76.306 9.287-53.003 16.711 16.711a7.64 7.64 0 0 0 3.236 1.923 7.6 7.6 0 0 0 2.975.464l90.802-3.914v271.122a7.628 7.628 0 0 0 7.628 7.628h21.162a7.628 7.628 0 0 0 7.628-7.628v-272.67a7.61 7.61 0 0 0 3.963-4.231l13.979-37.145a7.628 7.628 0 0 0-.979-7.186zM244.471 23.944c.175-4.857 4.182-8.69 9.004-8.69.109 0 .219.002.328.006l28.501 1.025a8.91 8.91 0 0 1 5.79 2.424c-12.296 13.37-32.577 20.024-44.258 22.906l.635-17.671zm-1.205 33.482c10.287-2.197 30.997-7.887 47.311-20.442l-1.387 38.548c-.085 2.387-1.109 4.61-2.88 6.26a8.996 8.996 0 0 1-6.45 2.424l-28.502-1.024a8.943 8.943 0 0 1-2.765-.55 7.499 7.499 0 0 0-1.421-.664 9.15 9.15 0 0 1-2.074-1.666c-1.65-1.773-2.51-4.063-2.424-6.451l.592-16.435zm23.192 41.573-2.202 15.406a40.294 40.294 0 0 0-7.1-1.933l-8.702-1.524 2.277-12.515.078.005 15.649.561zM136.524 160.45l-7.533-1.818L141.17 91.75l7.083 1.771-11.729 66.929zm9.17 48.503c-1.147-.2-1.948-1.34-1.746-2.488l24.266-138.472c.201-1.147 1.341-1.945 2.489-1.746l39.27 6.882c1.147.2 1.948 1.34 1.746 2.488l-17.782 101.472-6.484 37.001c-.201 1.147-1.339 1.945-2.488 1.745l-39.271-6.882zm-19.531 265.673a4.461 4.461 0 0 1-.331 5.909l-.592.596-42.752-42.753 8.356-8.356 18.942 23.922.016.02 16.361 20.662zm63.258-110.038a11.34 11.34 0 0 1-2.272 4.347c-.147.176-.287.36-.417.549a11.439 11.439 0 0 1-1.278 1.564l-68.924 66.837-14.733-18.607 64.476-61.749a7.634 7.634 0 0 0 2.046-3.369l23.147-79.225 21.266 3.726.317.559-23.628 85.368zm145.783 119.58a4.461 4.461 0 0 1 3.945 4.413l.003.839h-60.461v-11.818l56.513 6.566zm-30.549-262.374-70.773-70.773a7.626 7.626 0 0 0-10.786 0 7.626 7.626 0 0 0 0 10.786l43.083 43.083-11.608 66.242a7.629 7.629 0 0 0 .876 5.076l44.605 78.742a11.314 11.314 0 0 1 1.466 4.682c.021.228.052.455.093.679.136.745.202 1.42.202 2.06V464.93l-23.121-2.686v-96.082a7.625 7.625 0 0 0-.991-3.76l-49.818-87.945a.15.15 0 0 0-.01-.017l-3.045-5.375c-.074-.131-.135-.266-.2-.401l-.129-.263a7.629 7.629 0 0 0-5.522-4.135l-24.09-4.222 23.941-136.621c.201-1.147 1.339-1.943 2.488-1.746l16.185 2.836c.23.064.464.121.704.165.269.049.536.078.802.099l15.518 2.72c6.5 1.139 12.185 4.768 16.011 10.219a25.308 25.308 0 0 1 2.28 3.974l-9.657-9.255a7.627 7.627 0 1 0-10.555 11.013l57.835 55.431a7.65 7.65 0 0 0 5.607 2.114l68.809-2.967.874 20.271-81.074 3.497zM408.333 90.481h5.907v90.622h-5.907V90.481zm5.907 406.264h-5.907V233.218h5.907v263.527zm6.752-279.458-20.018.493-.883-20.467 18.866-.955h2.911c.649 0 1.275-.089 1.877-.242l5.316-.269-8.069 21.44z"/></svg>