<svg aria-hidden="true" style="position:absolute;width:0;height:0" xmlns="http://www.w3.org/2000/svg" overflow="hidden">
    <defs>
    <symbol id="price-tag" viewBox="0 0 512 512">
        <path d="M161.95 125.6c-1.86-1.86-4.44-2.93-7.07-2.93s-5.21 1.07-7.07 2.93c-1.859 1.86-2.93 4.44-2.93 7.07s1.07 5.21 2.93 7.07c1.86 1.861 4.44 2.93 7.07 2.93s5.21-1.07 7.07-2.93c1.859-1.86 2.93-4.44 2.93-7.07s-1.07-5.21-2.93-7.07z"/><path d="M509.075 41.85L496.71 29.471l12.361-12.361c3.905-3.905 3.905-10.237 0-14.143-3.906-3.905-10.236-3.905-14.143 0L482.574 15.32 470.391 3.122a10 10 0 00-7.069-2.933L294.068.095h-.028c-13.365 0-25.93 5.204-35.381 14.655l-84.46 84.46c-3.905 3.905-3.905 10.237 0 14.143 3.906 3.905 10.236 3.905 14.143 0l84.46-84.46c5.674-5.674 13.215-8.797 21.238-8.797h.017l165.111.092 9.266 9.276-37.104 37.104c-15.734-9.424-36.477-7.369-50.021 6.173-7.737 7.738-11.998 18.025-11.998 28.967s4.261 21.229 11.998 28.967c7.986 7.986 18.477 11.979 28.968 11.979 10.49 0 20.98-3.993 28.967-11.979 13.522-13.523 15.591-34.225 6.216-49.951l37.109-37.109 9.43 9.441-.092 164.887c-.005 8.016-3.129 15.553-8.798 21.222L239.086 483.186c-5.673 5.673-13.216 8.797-21.238 8.797s-15.565-3.124-21.238-8.797L28.798 315.373C23.124 309.7 20 302.157 20 294.135s3.124-15.565 8.798-21.238l107.794-107.794c3.905-3.905 3.905-10.237 0-14.143-3.906-3.905-10.236-3.905-14.143 0L14.655 258.754C5.205 268.204 0 280.77 0 294.135s5.205 25.931 14.655 35.381l167.812 167.813c9.755 9.754 22.567 14.632 35.381 14.632s25.626-4.878 35.381-14.632l244.022-244.023c9.443-9.443 14.647-21.999 14.655-35.354L512 48.922a9.997 9.997 0 00-2.925-7.072zm-83.974 74.681a20.828 20.828 0 01-14.824 6.141 20.827 20.827 0 01-14.825-6.141c-8.175-8.174-8.175-21.475 0-29.649 4.088-4.088 9.455-6.131 14.825-6.131 2.022 0 4.043.291 5.997.871l-11.542 11.542c-3.905 3.905-3.905 10.237 0 14.143 1.953 1.953 4.512 2.929 7.071 2.929s5.118-.976 7.071-2.929l11.51-11.51c2.079 7.119.32 15.131-5.283 20.734z"/><path d="M427.159 201.363L310.62 84.823c-15.438-15.438-40.559-15.436-55.995 0L70.204 269.245c-7.479 7.478-11.598 17.421-11.598 27.997s4.118 20.52 11.597 27.998l116.54 116.538c7.479 7.479 17.421 11.598 27.997 11.598s20.52-4.118 27.997-11.597l184.422-184.422c7.479-7.479 11.597-17.421 11.597-27.997s-4.118-20.519-11.597-27.997zm-14.143 41.851L228.595 427.638a19.466 19.466 0 01-13.854 5.738 19.462 19.462 0 01-13.854-5.739L84.346 311.098a19.465 19.465 0 01-5.739-13.855 19.459 19.459 0 015.739-13.855L268.768 98.966c3.82-3.82 8.837-5.73 13.855-5.73a19.534 19.534 0 0113.854 5.73l116.539 116.539a19.465 19.465 0 015.739 13.855 19.462 19.462 0 01-5.739 13.854z"/><path d="M326.078 200.082c3.905-3.905 3.905-10.237 0-14.143-3.906-3.905-10.236-3.905-14.143 0l-5.758 5.758c-15.375-9.497-35.103-8.222-47.574 4.247-7.271 7.271-10.991 17.145-10.475 27.802.499 10.292 4.931 20.117 12.478 27.664l.002.002c8.043 8.047 8.941 20.239 2.001 27.179-6.943 6.941-19.137 6.042-27.183-2.002-8.046-8.047-8.944-20.241-2.003-27.183 3.905-3.905 3.905-10.237 0-14.143-3.906-3.905-10.236-3.905-14.143 0-12.47 12.47-13.744 32.198-4.247 47.574l-6.832 6.831c-3.905 3.905-3.905 10.237 0 14.143a9.982 9.982 0 007.076 2.931 9.97 9.97 0 007.071-2.929l6.836-6.836c6.718 4.149 14.264 6.251 21.676 6.251 9.549-.001 18.872-3.474 25.893-10.494 14.736-14.737 13.84-39.612-1.995-55.457l-.008-.009c-4.026-4.026-6.386-9.171-6.644-14.49-.239-4.952 1.408-9.459 4.641-12.691 6.94-6.941 19.132-6.043 27.179 2l.002.003a.003.003 0 00.002.001c8.044 8.047 8.941 20.239 2 27.18-3.905 3.905-3.905 10.237 0 14.143 1.953 1.953 4.512 2.929 7.071 2.929s5.118-.976 7.071-2.929c12.47-12.471 13.745-32.199 4.248-47.574l5.758-5.758zM224.867 365.867l-51.361-51.362c-3.905-3.902-10.235-3.904-14.143 0-3.905 3.905-3.905 10.237 0 14.143l51.362 51.362c1.953 1.952 4.512 2.929 7.071 2.929s5.118-.977 7.071-2.929c3.905-3.905 3.905-10.237 0-14.143zM146.109 287.11a10.06 10.06 0 00-7.069-2.93c-2.63 0-5.2 1.07-7.07 2.93a10.081 10.081 0 00-2.93 7.08c0 2.63 1.069 5.21 2.93 7.07 1.86 1.86 4.44 2.93 7.07 2.93 2.64 0 5.21-1.07 7.069-2.93a10.06 10.06 0 002.94-7.07c0-2.64-1.07-5.21-2.94-7.08z"/>
    </symbol>
    <symbol id="traveller" viewBox="0 0 512 512">
        <path d="m469.04 233.69h-128.622c5.826-13.379 8.301-28.477 7.671-43.363 15.835.872 30.354-10.787 30.354-27.465 0-5.758-1.785-11.105-4.825-15.525 4.966-3.295 8.251-8.93 8.251-15.324v-13.146c0-10.137-8.247-18.383-18.383-18.383h-15.398v-46.433c.001-29.804-24.246-54.051-54.05-54.051h-76.076c-29.804 0-54.051 24.247-54.051 54.051v46.432h-15.398c-10.137 0-18.383 8.247-18.383 18.383v13.146c0 6.394 3.285 12.029 8.251 15.324-3.04 4.42-4.825 9.767-4.825 15.525 0 16.013 14.185 29.044 30.354 27.465-1.41 14.078 2.322 30.962 7.708 43.363h-128.658c-15.164 0-27.5 12.336-27.5 27.5v73.62c0 15.164 12.336 27.5 27.5 27.5h29.593c-.684 2.717-1.202 5.478-1.545 8.267-3.59-.114-7.181.845-10.31 2.858-5.04 3.243-8.048 8.714-8.048 14.635v22.948h-9.945c-6.765 0-12.724 4.802-14.171 11.417-2.48 11.342-3.62 22.962-3.388 34.538.192 9.595 1.332 19.221 3.387 28.611 1.448 6.616 7.408 11.417 14.171 11.417h9.946v7.5c0 4.142 3.358 7.5 7.5 7.5s7.5-3.358 7.5-7.5v-7.5h4.261c13.77 0 24.973-11.203 24.973-24.973v-36.037c0-13.77-11.203-24.973-24.973-24.973h-4.26v-22.947c.1-1.978 1.911-3.119 4.075-2.223l78.855 35.871v82.782c0 4.142 3.358 7.5 7.5 7.5s7.5-3.358 7.5-7.5v-82.786l82.92-37.722v120.508c0 4.142 3.358 7.5 7.5 7.5s7.5-3.358 7.5-7.5v-120.509c1.843.911 80.944 36.766 82.924 37.725v82.784c0 4.142 3.358 7.5 7.5 7.5s7.5-3.358 7.5-7.5v-82.784l78.854-35.87c2.204-.888 3.97.245 4.072 2.224v22.948h-4.26c-13.77 0-24.973 11.203-24.973 24.973v36.037c0 13.77 11.203 24.973 24.973 24.973h4.261v7.5c0 4.142 3.358 7.5 7.5 7.5s7.5-3.358 7.5-7.5v-7.501h9.946c6.763 0 12.723-4.801 14.171-11.416 2.055-9.391 3.194-19.017 3.387-28.611.232-11.576-.907-23.196-3.388-34.538-1.447-6.615-7.406-11.417-14.171-11.417h-9.945v-22.948c0-5.921-3.009-11.392-8.048-14.635-3.129-2.013-6.72-2.973-10.31-2.859-.343-2.789-.861-5.549-1.545-8.266h29.593c15.164 0 27.5-12.336 27.5-27.5v-73.62c-.002-15.164-12.338-27.5-27.502-27.5zm-412.299 113.62h-13.781c-6.893 0-12.5-5.607-12.5-12.5v-73.62c0-6.893 5.607-12.5 12.5-12.5h13.781zm15.169 78.708c5.499 0 9.973 4.474 9.973 9.973v36.037c0 5.499-4.474 9.973-9.973 9.973h-28.806c-1.795-8.318-2.791-16.837-2.961-25.329-.207-10.271.79-20.582 2.962-30.653h28.805zm396.985 0c2.172 10.071 3.168 20.383 2.962 30.654-.17 8.491-1.167 17.011-2.961 25.328h-28.806c-5.499 0-9.973-4.474-9.973-9.973v-36.037c0-5.499 4.474-9.973 9.973-9.973h28.805zm-58.635-177.328v73.149c-6.641-4.231-14.009-7.318-21.77-9.024l-73.675-16.191c-5.687-1.246-9.814-6.378-9.814-12.204v-9.611c5.767-3.639 11.183-7.925 16.123-12.865 4.113-4.113 7.772-8.556 10.987-13.253h78.149zm-62.17-73.363v-24.931c7.704-1.176 15.354 4.39 15.354 12.465 0 7.928-7.577 13.695-15.354 12.466zm-169.179-121.276c0-21.533 17.518-39.051 39.051-39.051h76.076c21.533 0 39.051 17.518 39.051 39.051v46.432h-154.178zm-15.001 121.276c-7.88.954-15.354-4.195-15.354-12.465 0-8.041 7.687-13.616 15.354-12.465zm-15.397-39.931c-1.866 0-3.383-1.518-3.383-3.383v-13.146c0-1.866 1.518-3.383 3.383-3.383h214.974c1.866 0 3.383 1.518 3.383 3.383v13.146c0 1.866-1.518 3.383-3.383 3.383h-125.799c-4.142 0-7.5 3.358-7.5 7.5s3.358 7.5 7.5 7.5h95.402v46.434c.011 20.677-8.117 40.051-22.573 54.507-4.995 4.995-10.565 9.2-16.546 12.596-11.607 6.591-24.202 9.987-37.971 9.987-42.507 0-77.09-34.583-77.09-77.09v-46.434h23.778c4.142 0 7.5-3.358 7.5-7.5s-3.358-7.5-7.5-7.5zm145.962 163.952-38.475 38.475-38.475-38.475c3.203-4.904 4.744-10.909 4.475-16.935 10.524 4.196 21.997 6.507 34 6.507 11.835 0 23.321-2.239 34-6.478-.513 5.822 1.409 12.197 4.475 16.906zm-192.735-50.658h78.201c7.134 10.43 16.356 19.323 27.058 26.076v9.654c0 5.826-4.127 10.958-9.82 12.205l-73.67 16.19c-7.761 1.706-15.128 4.793-21.77 9.024v-73.149zm-23.447 98.62h-6.552v-98.62h15v86.155c-3.292 3.83-6.111 8.019-8.448 12.465zm79.783 61.339-72.473-32.968c1.379-23.179 18.242-43.185 41.128-48.216l45.32-9.96 58.275 58.275zm195.848 0-72.249-32.868 14.17-14.17c2.929-2.929 2.929-7.678 0-10.606-2.929-2.929-7.678-2.929-10.606 0l-18.161 18.161c-7.089-2.977-15.068-2.977-22.157 0l-55.481-55.481 10.954-2.407c2.046-.448 3.988-1.145 5.826-2.019l43.06 43.06c1.794 1.795 4.181 2.784 6.719 2.784s4.925-.989 6.717-2.783l43.061-43.061c1.837.874 3.777 1.57 5.822 2.018l10.959 2.408-12.334 12.335c-2.929 2.929-2.929 7.678 0 10.606 2.929 2.929 7.678 2.929 10.606 0l19.119-19.119 45.319 9.959c22.886 5.031 39.749 25.037 41.128 48.216zm86.335-61.339h-6.552c-2.333-4.442-5.16-8.638-8.447-12.465v-86.155h15v98.62zm41.281-12.5c0 6.893-5.607 12.5-12.5 12.5h-13.781v-98.62h13.781c6.893 0 12.5 5.607 12.5 12.5zm-184.728-143.501c4.142 0 7.5-3.358 7.5-7.5v-16.325c0-4.142-3.358-7.5-7.5-7.5s-7.5 3.358-7.5 7.5v16.325c0 4.142 3.358 7.5 7.5 7.5zm-89.124-23.825v16.325c0 4.142 3.358 7.5 7.5 7.5s7.5-3.358 7.5-7.5v-16.325c0-4.142-3.358-7.5-7.5-7.5s-7.5 3.358-7.5 7.5zm28.38 70.722c4.16 2.282 10.919 5.021 19.498 5.11 8.65.091 16.093-2.767 20.365-5.11 3.632-1.992 4.961-6.551 2.969-10.183-1.992-3.631-6.551-4.96-10.183-2.969-2.773 1.521-7.287 3.325-12.994 3.263-5.472-.058-9.786-1.806-12.441-3.263-3.633-1.993-8.191-.663-10.183 2.969s-.662 8.191 2.969 10.183z"/>
    </symbol>
    <symbol id="badge" viewBox="0 0 512 512">
        <path d="m452.42 210.226c10.146-15.543 8.272-35.766-4.557-49.18-5.654-5.912-8.017-14.218-6.323-22.22 3.847-18.159-5.206-36.34-22.015-44.213-7.408-3.47-12.612-10.362-13.923-18.436-2.973-18.322-17.983-32.005-36.5-33.275-8.161-.56-15.504-5.106-19.643-12.162-9.392-16.009-28.326-23.346-46.056-17.842-7.812 2.426-16.3.838-22.709-4.245-14.541-11.536-34.85-11.536-49.39 0-6.408 5.085-14.898 6.671-22.709 4.245-17.726-5.505-36.665 1.832-46.056 17.842-4.139 7.056-11.481 11.602-19.642 12.162-18.518 1.27-33.527 14.954-36.501 33.275-1.31 8.074-6.515 14.966-13.922 18.436-16.808 7.874-25.861 26.055-22.016 44.213 1.695 8.002-.669 16.309-6.322 22.221-12.828 13.414-14.703 33.638-4.557 49.181 4.471 6.849 5.268 15.449 2.131 23.004-7.117 17.142-1.558 36.677 13.516 47.505 6.644 4.773 10.493 12.504 10.297 20.681-.443 18.555 11.797 34.763 29.765 39.415 5.304 1.373 9.912 4.442 13.214 8.628l-41.324 99.763c-5.791 13.981 7.316 28.378 21.769 23.941l45.242-13.884c1.322-.403 2.748.188 3.395 1.407l22.173 41.808c7.093 13.374 26.538 12.43 32.322-1.535l43.071-103.981c.565-.019 1.13-.019 1.695 0l43.071 103.981c5.795 13.987 25.239 14.89 32.323 1.536l22.173-41.809c.646-1.22 2.073-1.811 3.395-1.406l45.241 13.884c14.461 4.439 27.558-9.968 21.77-23.941l-41.325-99.763c3.302-4.186 7.91-7.255 13.214-8.628 17.968-4.651 30.207-20.859 29.765-39.415-.196-8.177 3.654-15.908 10.298-20.68 15.075-10.829 20.632-30.364 13.515-47.506-3.132-7.558-2.335-16.158 2.135-23.007zm-254.196 284.993c-.941 2.272-4.067 2.411-5.214.248l-22.173-41.808c-4.011-7.563-12.862-11.227-21.045-8.717l-45.242 13.884c-2.347.718-4.452-1.594-3.512-3.863l36.662-88.513c8.272 11.331 22.1 17.646 36.657 15.946 8.124-.947 16.177 2.171 21.542 8.345 7.783 8.96 18.75 13.716 29.939 13.715 3.539 0 7.099-.495 10.589-1.464zm209.227-36.394-45.241-13.884c-8.183-2.51-17.036 1.155-21.046 8.717l-22.173 41.808c-1.145 2.161-4.275 2.021-5.215-.248l-38.195-92.209c14.519 4.03 30.278-.48 40.521-12.27 5.364-6.175 13.414-9.295 21.542-8.345 14.571 1.703 28.39-4.614 36.657-15.945l36.664 88.51c.942 2.278-1.175 4.581-3.514 3.866zm32.41-256.797c-7.182 11.003-8.462 24.817-3.424 36.953 4.43 10.671.971 22.831-8.414 29.573-10.672 7.666-16.856 20.085-16.542 33.22.276 11.552-7.344 21.642-18.53 24.537-10.463 2.709-19.249 9.519-24.518 18.728-.014.027-.029.053-.043.079-1.117 1.963-2.085 4.029-2.864 6.194-3.915 10.871-14.658 17.533-26.141 16.187-13.049-1.526-25.988 3.487-34.605 13.406-7.577 8.722-20.006 11.045-30.224 5.65-3.475-1.836-7.155-3.11-10.913-3.847-.031-.007-.062-.014-.093-.02-4.992-.967-10.122-.966-15.114.004-.018.004-.035.008-.053.011-3.767.737-7.454 2.013-10.937 3.852-10.218 5.396-22.646 3.072-30.223-5.65-7.598-8.745-18.551-13.675-29.982-13.675-1.534 0-3.079.089-4.624.27-11.472 1.343-22.227-5.315-26.142-16.187-.779-2.163-1.745-4.226-2.861-6.188-.017-.032-.034-.062-.051-.094-5.27-9.205-14.053-16.012-24.513-18.72-11.186-2.896-18.805-12.985-18.529-24.536.314-13.136-5.87-25.554-16.542-33.221-9.384-6.741-12.845-18.902-8.414-29.574 5.038-12.136 3.758-25.95-3.424-36.953-6.315-9.675-5.149-22.265 2.838-30.615 9.081-9.496 12.878-22.84 10.156-35.694-2.394-11.304 3.242-22.622 13.705-27.524 11.899-5.574 20.259-16.645 22.365-29.615 1.851-11.406 11.195-19.924 22.722-20.714 13.109-.899 24.905-8.202 31.553-19.537 5.847-9.966 17.639-14.532 28.67-11.106 12.549 3.897 26.186 1.348 36.48-6.819 9.05-7.182 21.694-7.182 30.747 0 10.293 8.166 23.928 10.717 36.479 6.819 11.035-3.427 22.825 1.141 28.67 11.106 6.648 11.334 18.444 18.637 31.553 19.537 11.527.791 20.871 9.309 22.722 20.714 2.106 12.97 10.467 24.041 22.365 29.616 10.464 4.901 16.099 16.219 13.705 27.523-2.722 12.854 1.074 26.198 10.156 35.694 7.983 8.35 9.149 20.94 2.834 30.616z"/><path d="m113.951 192.129c4.107.505 7.854-2.417 8.359-6.527 8.282-67.315 65.757-118.076 133.69-118.076 67.966 0 125.443 50.788 133.698 118.139.466 3.801 3.7 6.588 7.434 6.588.305 0 .612-.019.922-.057 4.111-.504 7.035-4.245 6.532-8.356-9.176-74.861-73.054-131.313-148.586-131.313-75.497 0-139.371 56.422-148.577 131.243-.505 4.111 2.417 7.853 6.528 8.359z"/><path d="m398.055 212.26c-4.099-.5-7.852 2.421-8.356 6.532-8.252 67.354-65.73 118.145-133.699 118.145-67.938 0-125.413-50.766-133.692-118.086-.505-4.11-4.245-7.031-8.359-6.528-4.11.505-7.034 4.248-6.528 8.359 9.202 74.827 73.076 131.253 148.578 131.253 75.536 0 139.414-56.455 148.586-131.32.505-4.11-2.419-7.851-6.53-8.355z"/><path d="m361.899 171.281c-1.906-5.866-7.12-9.8-13.285-10.021l-58.801-2.109-20.177-55.272c-2.115-5.794-7.467-9.538-13.635-9.538s-11.52 3.744-13.635 9.538l-20.177 55.272-58.801 2.109c-6.164.221-11.379 4.155-13.285 10.021s0 12.114 4.857 15.916l46.331 36.269-16.164 56.576c-1.695 5.931.435 12.106 5.426 15.732 4.985 3.622 11.516 3.746 16.637.298l48.81-32.857 48.811 32.855c5.115 3.444 11.646 3.328 16.637-.298 4.991-3.625 7.12-9.8 5.425-15.732l-16.164-56.575 46.331-36.269c4.858-3.802 6.765-10.049 4.859-15.915zm-60.69 40.574c-4.675 3.66-6.642 9.713-5.01 15.419l15.89 55.615-47.982-32.297c-2.463-1.658-5.285-2.487-8.107-2.487s-5.644.829-8.106 2.486l-47.983 32.297 15.89-55.614c1.631-5.708-.335-11.759-5.009-15.419l-45.546-35.654 57.805-2.074c5.932-.213 11.08-3.954 13.115-9.529l19.835-54.334 19.835 54.334c2.036 5.575 7.183 9.316 13.115 9.528l57.803 2.074z"/>
    </symbol>
    <symbol id="boot" viewBox="0 0 512 512">
        <path d="m496.031 338.809-.489-.793c-15.771-25.561-41.592-43.891-70.839-50.288l-38.513-8.425c-12.485-2.731-24.514-7.073-35.815-12.878-.728-5.735-3.621-11.197-8.523-15.03-4.776-3.736-10.719-5.389-16.744-4.653-1.061.13-2.093.356-3.108.626-3.462-2.965-6.8-6.099-9.976-9.373.041-.119.095-.231.135-.351 1.896-5.761 1.436-11.916-1.298-17.33-2.732-5.415-7.411-9.441-13.172-11.337-2.683-.883-5.449-1.233-8.188-1.103-2.082-3.685-4.013-7.466-5.769-11.314 6.294-5.021 9.728-13.243 8.234-21.715-1.799-10.206-10.19-17.619-20.026-18.639-.576-4.086-.967-8.212-1.199-12.341 9.063-2.982 15.626-11.522 15.626-21.57 0-10.142-6.684-18.75-15.878-21.656v-37.792c0-16.694-13.581-30.275-30.274-30.275h-33.885c-38.136 0-70.196 27.127-76.924 64.015h-22.578c-4.143 0-7.5 3.358-7.5 7.5s3.357 7.5 7.5 7.5h41.067c2.144 0 3.887 1.744 3.887 3.887v51.929c0 9.933-8.08 18.014-18.013 18.014h-78.863c-9.933 0-18.014-8.081-18.014-18.014v-51.929c0-2.144 1.744-3.887 3.888-3.887h33.058c4.143 0 7.5-3.358 7.5-7.5s-3.357-7.5-7.5-7.5h-33.058c-10.415 0-18.888 8.473-18.888 18.887v51.929c0 8.672 3.366 16.569 8.854 22.466v53.302c0 4.142 3.357 7.5 7.5 7.5s7.5-3.358 7.5-7.5v-44.057c2.911.842 5.982 1.303 9.16 1.303h26.406c-7.114 9.423-11.12 20.999-11.12 33.138 0 30.345 24.688 55.033 55.032 55.033 30.346 0 55.033-24.688 55.033-55.033 0-17.402-8.389-33.728-22.022-44.012 5.308-5.861 8.547-13.629 8.547-22.14v-51.929c0-10.415-8.473-18.887-18.887-18.887h-3.184c6.472-28.414 31.736-49.015 61.618-49.015h33.885c8.422 0 15.274 6.852 15.274 15.275v36.74h-35.625c-12.521 0-22.706 10.186-22.706 22.707s10.187 22.706 22.707 22.706h35.916c.252 4.33.661 8.657 1.256 12.946l-34.506 6.084c-5.973 1.053-11.179 4.37-14.657 9.338-3.479 4.969-4.814 10.995-3.761 16.967 1.053 5.973 4.368 11.178 9.337 14.657 3.86 2.703 8.358 4.112 12.975 4.112 1.325 0 2.66-.116 3.992-.351l39.249-6.92c1.683 3.752 3.507 7.454 5.473 11.075l-33.878 17.1c-5.415 2.733-9.441 7.411-11.338 13.172s-1.436 11.916 1.298 17.33c3.99 7.906 12.003 12.473 20.308 12.473 3.437 0 6.924-.782 10.195-2.434l39.098-19.735h-.001c.609-.308 1.195-.648 1.769-1.003 2.169 2.184 4.412 4.299 6.702 6.358l-26.293 33.621c-7.713 9.862-5.964 24.161 3.898 31.874 4.033 3.155 8.9 4.824 13.942 4.824.929 0 1.865-.057 2.802-.171 6.021-.736 11.394-3.772 15.131-8.55l26.98-34.499c.448-.573.857-1.164 1.241-1.765 11.438 5.532 23.51 9.723 35.993 12.453l38.513 8.425c25.295 5.533 47.631 21.393 61.276 43.509l.489.793c8.987 14.564 13.737 31.307 13.737 48.421v.154 1.5h-281.696l-69.077-69.069c-10.435-10.433-24.308-16.178-39.062-16.178h-61.419v-35.348c0-4.142-3.357-7.5-7.5-7.5s-7.5 3.358-7.5 7.5v39.931l-9.988 10.906c-13.386 14.618-20.758 33.585-20.758 53.406v78.119c0 10.415 8.473 18.887 18.887 18.887h116.379c10.414 0 18.887-8.473 18.887-18.887v-15.395l48.833 33.052c3.138 2.124 6.798 3.246 10.586 3.246h160.934c4.143 0 7.5-3.358 7.5-7.5s-3.357-7.5-7.5-7.5h-160.935c-.779 0-1.533-.231-2.179-.668l-60.536-40.974c-2.298-1.556-5.269-1.716-7.72-.414-2.452 1.301-3.984 3.85-3.984 6.625v29.527c0 2.144-1.743 3.887-3.887 3.887h-116.378c-2.144 0-3.887-1.744-3.887-3.887v-46.768h482v48.783c0 2.144-1.743 3.888-3.887 3.888h-85.618c-4.143 0-7.5 3.358-7.5 7.5s3.357 7.5 7.5 7.5h85.618c10.414 0 18.887-8.473 18.887-18.888v-65.283-.154c0-19.896-5.522-39.363-15.969-56.293zm-330.773-105.254c0 22.074-17.959 40.033-40.033 40.033s-40.032-17.958-40.032-40.033c0-13.285 6.567-25.664 17.568-33.138h31.009c3.816 0 7.479-.658 10.891-1.855 12.583 7.017 20.597 20.489 20.597 34.993zm46.9-111.262c0-4.25 3.457-7.707 7.706-7.707h43.797c4.249 0 7.706 3.457 7.706 7.707s-3.457 7.707-7.706 7.707h-43.797c-4.249 0-7.706-3.457-7.706-7.707zm15.653 71.688c-2.026.358-4.07-.095-5.758-1.276-1.686-1.181-2.812-2.947-3.169-4.975-.357-2.027.096-4.072 1.276-5.758s2.947-2.812 4.976-3.169l43.131-7.605c.45-.08.898-.118 1.342-.118 3.667 0 6.927 2.635 7.586 6.369.737 4.185-2.067 8.19-6.252 8.928zm66.252 43.443-39.098 19.735c-3.796 1.915-8.438.387-10.354-3.407-.928-1.838-1.084-3.927-.44-5.882s2.01-3.543 3.849-4.471l39.098-19.735c1.093-.552 2.274-.831 3.465-.831.811 0 1.625.129 2.417.39 1.955.644 3.543 2.01 4.471 3.848s1.084 3.927.44 5.882-2.011 3.544-3.848 4.471zm39.872 36.604-26.98 34.498c-2.617 3.347-7.472 3.941-10.818 1.323s-3.94-7.471-1.322-10.818l26.98-34.499c1.268-1.622 3.092-2.652 5.135-2.902.317-.039.635-.058.95-.058 1.711 0 3.363.566 4.732 1.638 3.347 2.617 3.94 7.47 1.323 10.818zm-318.935 121.229v-14.851c0-16.062 5.974-31.431 16.82-43.276l9.726-10.621h65.619c10.748 0 20.854 4.186 28.456 11.786l58.469 58.462h-179.09z"/><path d="m53.828 134.5c0 4.142 3.357 7.5 7.5 7.5h57.926c4.143 0 7.5-3.358 7.5-7.5s-3.357-7.5-7.5-7.5h-57.926c-4.142 0-7.5 3.358-7.5 7.5z"/><path d="m74.323 364.663h-25.99c-4.143 0-7.5 3.358-7.5 7.5s3.357 7.5 7.5 7.5h25.99c4.143 0 7.5-3.358 7.5-7.5s-3.357-7.5-7.5-7.5z"/>
    </symbol>
    <symbol id="trekking" viewBox="0 0 479.496 479.496">
        <circle cx="128" cy="43.748" r="12"/><path d="M471.502 227.742a8 8 0 00-6.118 2.838l-38.904 45.968-42.768 32.08a40.248 40.248 0 00-9.504 10.152L344.4 364.492a15.935 15.935 0 01-13.4 7.256h-19v-8c0-13.255-10.745-24-24-24v-48a23.657 23.657 0 00-9.528-19.12L240 240.036v-56.96l6.088 6.776a20.703 20.703 0 0012.992 8.528 24.155 24.155 0 0018.088-3.2L312 173.028v126.72h-8v16h8v16h16v-16h8v-16h-8V162.372c8.714-7.826 10.507-20.8 4.24-30.696a22.872 22.872 0 00-4.24-4.8V83.748h-16v37.024a23.73 23.73 0 00-13.048 3.664l-29.776 19.472-33.008-36.16a23.944 23.944 0 00-17.88-8v.232c-.76-.072-1.488-.232-2.288-.232 13.255 0 24-10.745 24-24v-16h16v-16h-16v-8c0-13.255-10.745-24-24-24h-16c-13.255 0-24 10.745-24 24v40c0 13.255 10.745 24 24 24h-32v-24a8 8 0 00-8-8h-.208a39.583 39.583 0 008.208-24c0-22.091-17.909-40-40-40s-40 17.909-40 40a39.583 39.583 0 008.208 24H96a8 8 0 00-8 8v48h-8c-13.255 0-24 10.745-24 24v32c0 8.837 7.163 16 16 16h16v8c0 13.255 10.745 24 24 24h24.424l18.776 25.296L48.608 359.332l-5.6-5.736-11.456 11.2 5.712 5.856-11.472 11.432 5.648 5.664 5.648 5.664 11.36-11.328 5.6 5.728 11.456-11.2-5.712-5.848 99.112-98.84c3.584 10.336 8.579 23.475 14.984 39.416l-27.88 65.736a25.174 25.174 0 00-2.008 9.488c0 .208.096.384.112.592s-.112.384-.112.592v24h-38.68c-1.319 0-2.635.109-3.936.328L6.688 427.86A8 8 0 000 435.748v32a8 8 0 008 8l463.496-.496a8 8 0 008-8V235.748a8 8 0 00-7.994-8.006zM240 135.668l26.536 29.08 41.088-26.864a8.128 8.128 0 0111.12 2.4 8 8 0 01-2.427 11.05l-.021.014-47.704 30.4a8.397 8.397 0 01-6.048 1.08 4.952 4.952 0 01-3.2-1.856L240 159.156v-23.488zm-152 44.08H72v-32a8 8 0 018-8h8v40zm200 176a8 8 0 018 8v8h-40v-16h32zM197.04 380.3l24.968-58.856a25.697 25.697 0 00.104-19.52c-1.408-3.44-2.781-6.832-4.12-10.176h4.72L240 304.1v75.648a8 8 0 008 8h10.656a64.513 64.513 0 00-5.288 5.184l-9.784 10.872a24.001 24.001 0 01-17.832 7.944H216v-8c-.008-11.306-7.906-21.074-18.96-23.448zM192 35.748a8 8 0 018-8h16a8 8 0 018 8v8h-32v-8zm0 40v-16h32v16a8 8 0 01-8 8h-16a8 8 0 01-8-8zm-24 40h48a8 8 0 018 8v96h-12.8l2.4-2.4-11.312-11.312-12.8 12.736-13.8-18.616 33.6-35.608c9.041-9.631 8.685-24.734-.8-33.928-9.726-8.911-24.751-8.558-34.048.8l-6.44 6.912v-22.584zm-40-96c13.255 0 24 10.745 24 24s-10.745 24-24 24-24-10.745-24-24 10.745-24 24-24zm-16 192a8 8 0 01-8-8v-8h16.664a23.882 23.882 0 004 16H112zm16.872-32H104v-96h48v71.52l-23.128 24.48zM172 248.86h-.008l-33.928-45.776a8.151 8.151 0 01.616-10.4l47.552-50.32a8.001 8.001 0 015.768-2.528 7.87 7.87 0 015.52 2.248 8.16 8.16 0 01.264 11.432l-42.856 45.352 29.872 40.288c2.68 3.535 1.987 8.572-1.548 11.252s-8.572 1.987-11.252-1.548zm17.912 65.688a7.999 7.999 0 00.048-6.128c-6.731-16.651-11.936-30.251-15.616-40.8a22.182 22.182 0 0018.496-4.384 24.144 24.144 0 007.96-27.488H224v8a8.001 8.001 0 002.832 6.104l41.816 35.4a8 8 0 013.352 6.496v48h-16V299.98a8 8 0 00-3.352-6.504l-22.728-16.232a8.083 8.083 0 00-.752-.344 7.569 7.569 0 00-1.488-.664 7.653 7.653 0 00-1.6-.32 7.238 7.238 0 00-.8-.168h-19.04a7.2 7.2 0 00-1.488.304 7.72 7.72 0 00-1.408.24l-.088.056a8.066 8.066 0 00-1.888 1.208c-.224.184-.52.296-.728.496a119.42 119.42 0 00-1.728 2.52 8.26 8.26 0 00-.272 1.192 7.809 7.809 0 00-.376 1.864v.12c.047.544.154 1.08.32 1.6.034.452.112.899.232 1.336l.072.2c2.6 6.688 5.432 13.824 8.416 21.104a9.535 9.535 0 010 7.2l-27.416 64.56h-17.6l27.624-65.2zM160 395.748h24.856c.104 0 .208.064.312.064s.28-.064.432-.064h6.4a8 8 0 018 8v8h-40v-16zm303.504 63.504L16 459.748v-17.224l88.048-14.672c.42-.07.846-.105 1.272-.104h120.432a40.058 40.058 0 0029.728-13.24l9.776-10.872a48.097 48.097 0 0135.68-15.888H331a31.92 31.92 0 0026.808-14.52l29.808-45.712a24.103 24.103 0 015.696-6.088l43.488-32.616a8.275 8.275 0 001.312-1.232l25.392-30v201.672z"/><path d="M408 387.748h16v16h-16zM432 363.748h16v16h-16zM384 363.748h16v16h-16zM296 403.748h16v16h-16zM272 427.748h16v16h-16zM320 427.748h16v16h-16zM104 435.748h16v16h-16zM176 435.748h16v16h-16z"/>
    </symbol>
    <symbol id="rhino" viewBox="0 0 60 60">
        <path d="m4.666 41.611c3.633 8.811 13 15.956 21.683 18.8 1.2574585.4141281 2.5764492.6102857 3.9.58 1.767167-.0680999 3.5047364-.4755019 5.118-1.2 7.2-2.852 16.233-9.126 19.967-18.18 2.2270587-5.4159332 3.6137189-11.1402902 4.112-16.975.4890042-5.196701.6469898-10.419243.473-15.636-.0281295-.8586024-.4178646-1.66531402-1.073-2.221-1.162-.98-2.221-.68-3.738-.5.2214306-1.49472723.1767423-3.01683834-.132-4.496-.1016879-.45744154-.5073923-.78291958-.976-.783-.221 0-5.452.038-8.707 3.293-.7775427.75124598-1.694848 1.34273798-2.7 1.741-3.9032698-.98778054-7.638303-2.54946455-11.083-4.634-.9346858-.5370337-2.0843142-.5370337-3.019 0-3.4441189 2.08263086-7.1780752 3.64293933-11.08 4.63-1.005152-.39826202-1.9224573-.98975402-2.7-1.741-3.259-3.251-8.49-3.289-8.711-3.289-.4686077.00008042-.87431214.32555846-.976.783-.30814937 1.47754323-.35283614 2.99790877-.132 4.491-.748-.088-.627-.074-1.418-.174-.84176876-.1093692-1.69055156.14213376-2.33685372.69243348s-1.02991145 1.34812796-1.05614628 2.19656652c-.17456026 5.2200657-.01690864 10.4459495.472 15.646.49819006 5.8351526 1.88520094 11.5599026 4.113 16.976zm2.118-37.784c2.841 2.183 5.151 4.445 5.216 5.173.0327641 1.0405366.1776008 2.0745096.432 3.084-2.743-.72-4.538-2.155-5.309-4.9-.29516988-1.09305194-.40967973-2.22700346-.339-3.357zm1.907 8.815c2.022 1.343 3.067 1.152 4.793 1.9 2.224.957 2.7 2.3 1.189 4.3-.3931281.5149216-.7159634 1.0798833-.96 1.68-.368.912-1.647 4.123-2.661 7.167-.927 2.771-2.2 9.9 5.291 17.128-.2778075.6809178-.3064908 1.4380143-.081 2.138l.325.974c-2.7436913-2.3510203-4.9217415-5.2906362-6.372-8.6-1.99660326-4.8486568-3.23737511-9.974977-3.679-15.2-.376-4.364-.55-8.2-.529-11.686.922.085 1.818.151 2.684.199zm15.9 24c1.0145415 2.0632632 3.1137937 3.370336 5.413 3.370336s4.3984585-1.3070728 5.413-3.370336l4.728 3.94 1.468 4.418h-3.2c-.529613-.0004178-1.0377692.2092461-1.413.583l-1.85 1.85c-.4213205.4245294-.6315765 1.0147095-.5735748 1.610001.0580018.5952914.3782292 1.1337843.8735748 1.468999l4.08 2.72-.091.273c-.1657621.5033126-.525793.9195083-1 1.156l-7.994 4c-.2814108.1406214-.6125892.1406214-.894 0l-7.994-4c-.474207-.2364917-.8342379-.6526874-1-1.156l-.091-.273 4.084-2.723c.4946134-.3350582.8143498-.8729555.8723403-1.4675507.0579904-.5945952-.1517879-1.1841357-.5723403-1.6084493l-1.85-1.85c-.3744944-.3730204-.8814263-.5826241-1.41-.583h-3.2l1.471-4.414zm1.445-1.687 3.964-18.247 3.968 18.25c-.4696766 1.8068638-2.1007034 3.0682881-3.9676134 3.0685234-1.86691.0002352-3.4982547-1.260778-3.9683866-3.0675234zm22.917-7.275c-1.015-3.045-2.294-6.256-2.661-7.167-.2445039-.6004055-.5676623-1.1656804-.961-1.681-1.508-1.994-1.044-3.336 1.189-4.3 1.787-.772 2.744-.536 4.793-1.9.866-.048 1.762-.114 2.685-.2.022 3.519-.148 7.267-.531 11.688-.4432153 5.224555-1.6832306 10.3505363-3.677 15.2-1.4518526 3.3089714-3.6304422 6.2483925-6.374 8.6.471-1.411.676-1.823.246-3.113 7.487-7.222 6.213-14.353 5.287-17.123zm4.269-23.858c.0834801 1.15096193-.0346264 2.30766152-.349 3.418-.787 2.736-2.6 4.134-5.3 4.844.2524976-1.0073412.3956581-2.0389686.427-3.077.065-.734 2.377-2.999 5.222-5.185zm-13.031 47.443-3.624-2.418 1.843-1.847h3.2zm-21.804-4.265h3.2l1.853 1.85-3.627 2.417zm39.168-38.7c.2250442.19235233.3580387.47105923.366.767.1706496 5.136045.0146684 10.277744-.467 15.394-.4803004 5.6319074-1.8184116 11.1573486-3.968 16.385-2.433 5.9-7.308 10.547-12.347 13.742.4534266-1.0176626.8213634-2.0712996 1.1-3.15 4.0951629-2.8706883 7.3407-6.7922782 9.395-11.352 2.0713511-5.0363741 3.3602521-10.3599196 3.822-15.786.4030047-4.3157651.5779147-8.6497949.524-12.984-.0051805-.2812817-.128605-.5473703-.34-.733-.419-.369-.716-.241-2.113-.111.4492385-.65718099.8100048-1.37064414 1.073-2.122 2.475-.283 2.531-.406 2.955-.05zm-28.065-5.164c.3150836-.18408248.7049164-.18408248 1.02 0 2.5900288 1.52468571 5.3160696 2.8055198 8.143 3.826-.721.062.3.247-7.441-1.69-.796207-.19801101-1.628793-.19801101-2.425 0l-6.899 1.728c-1.72-.064.592.18 7.602-3.864zm-7.49 5.864c.187 0-.087.053 7.272-1.787.983-.244.828-.157 8.485 1.757.0794654.0199159.1610769.0299914.243.03.221 0 5.452-.038 8.707-3.293.9883643-.9379812 2.1815214-1.63299092 3.485-2.03-2.099 1.763-4.192 3.881-4.192 5.323-.0751463 1.3273046-.3139544 2.640245-.711 3.909-3.277 1.62-3.591 4.447-1.556 7.135.2871824.3733056.522643.7836798.7 1.22.362.9 1.621 4.062 2.619 7.053.776 2.323 1.826 8.187-4.1 14.382-.9-2.687-.922-3.141-1.533-3.649l-5.517-4.6-3.95-18.169c-.2004938-.9186041-1.0137707-1.5735214-1.954-1.5735214s-1.7535062.6549173-1.954 1.5735214l-3.944 18.171-5.517 4.6c-.591.493-.58.792-1.533 3.65-5.924-6.194-4.874-12.059-4.1-14.383 1-2.99 2.256-6.153 2.619-7.052.1767762-.4369127.4122769-.8476932.7-1.221 2.03-2.683 1.725-5.512-1.557-7.134-.3976277-1.2696788-.6367745-2.5836427-.712-3.912 0-1.441-2.093-3.56-4.192-5.323 1.3033018.39741418 2.4963706 1.09237248 3.485 2.03 3.255 3.255 8.486 3.293 8.707 3.293zm-19.92.063c.00289526-.2852253.12745549-.55563931.34234513-.74321409.21488964-.18757477.49965394-.2744556.78265487-.23878591.181.021.806.108 2.192.266.26426132.75105882.6260216 1.46415692 1.076 2.121-.444-.042-.887-.081-1.342-.132-.27972534-.0312877-.55968429.0567596-.77114589.242526-.21146161.1857665-.33484319.4520489-.33985411.733474-.05014315 4.3334639.12442449 8.6666134.523 12.982.45979486 5.4271489 1.74911255 10.7516971 3.823 15.788 2.0391335 4.5690849 5.2864419 8.4951057 9.392 11.355.274344 1.0812929.6424032 2.136619 1.1 3.154-5.036-3.191-9.911-7.844-12.343-13.741-2.15015555-5.2275239-3.48861279-10.7530018-3.969-16.385-.48196794-5.1189124-.63761595-10.2633129-.466-15.402z"/><path id="Shape" d="m15.014 28.835c-.514 3.058-.13 7.165 2.986 7.165 2.373 0 3-2.617 3-4 .000114-.3037783-.1378631-.5911385-.375-.781l-3.439-2.75c-.2072013-.1657145-.3400545-.4069781-.3693128-.670678-.0292583-.2636998.0474769-.5282179.2133128-.735322l2.751-3.438c.223291-.2790244.2807626-.655978.1507659-.9888658-.1299968-.3328879-.4277123-.5711366-.781-.625-.3532878-.0538635-.7084749.0848414-.9317659.3638658l-2.75 3.439c-.6700937.8578992-.8426786 2.0037872-.455 3.021zm1.829 1.92 2.118 1.694c-.077.592-.304 1.551-.961 1.551-.2256193.0153844-.444489-.0806045-.586-.257-.4878803-.9154235-.6869584-1.9571842-.571-2.988z"/><path id="Shape" d="m42 36c3.114 0 3.5-4.11 2.986-7.165.3824544-1.0177694.2102652-2.1610301-.455-3.021l-2.75-3.439c-.345178-.4313344-.9746656-.501178-1.406-.156s-.501178.9746656-.156 1.406l2.751 3.438c.1658359.2071041.2425711.4716222.2133128.735322-.0292583.2636999-.1621115.5049635-.3693128.670678l-3.439 2.75c-.2371369.1898615-.375114.4772217-.375.781 0 1.383.627 4 3 4zm1.155-5.244c.03 1.102-.055 3.244-1.155 3.244-.657 0-.884-.961-.961-1.55z"/><path id="Shape" d="m30 45c4.667 0 5.9-3.533 5.949-3.684.174522-.5246705-.1093295-1.091478-.634-1.266s-1.091478.1093295-1.266.634c-.006.023-.807 2.316-4.049 2.316-3.188 0-4.021-2.231-4.051-2.316-.1128959-.3394023-.398285-.5927937-.748664-.6647241s-.712517.0485281-.95.316c-.2374831.2674719-.3142319.6413218-.201336.9807241.051.151 1.284 3.684 5.951 3.684z"/>
    </symbol>
    <symbol id="temple" viewBox="0 0 512 512">
        <path d="M128 408h16v16h-16zM368 408h16v16h-16z"/><path d="M20.422 191.155l9.794 4.9-.746 2.239a19.578 19.578 0 002.544 17.388 8.013 8.013 0 00.323 2.619l24 80A8 8 0 0064 304v16a8 8 0 00-7.155 4.422l-32 64A8 8 0 0032 400h32v88a8 8 0 008 8h368a8 8 0 008-8v-88h32a8 8 0 007.155-11.578l-32-64A8 8 0 00448 320v-16a8 8 0 007.663-5.7l24-80a8.013 8.013 0 00.323-2.619 19.578 19.578 0 002.544-17.388l-.746-2.239 9.794-4.9a8 8 0 10-7.156-14.31l-16 8a8 8 0 00-4.011 9.685l2.94 8.821A3.532 3.532 0 01464 208h-61.248l19.514-65.046a19.5 19.5 0 0012.264-24.662l-.746-2.239 9.794-4.9a8 8 0 10-7.156-14.31l-16 8a8 8 0 00-4.011 9.685l2.94 8.821A3.532 3.532 0 01416 128H312a8 8 0 00-8-8h-16v-16a7.994 7.994 0 00-.845-3.578L264 54.112V24a8 8 0 00-16 0v30.112l-23.155 46.31A7.994 7.994 0 00224 104v16h-16a8 8 0 00-8 8H96a3.532 3.532 0 01-3.351-4.649l2.94-8.821a8 8 0 00-4.011-9.685l-16-8a8 8 0 00-7.156 14.31l9.794 4.9-.746 2.239a19.5 19.5 0 0012.264 24.662L109.248 208H48a3.532 3.532 0 01-3.351-4.649l2.94-8.821a8 8 0 00-4.011-9.685l-16-8a8 8 0 00-7.156 14.31zM96 480H80v-80h16zm4.687-96H44.944l24-48h79.743zM160 480h-48v-32h48zm0-48h-48v-32h48zm0-48h-36.686L160 347.314zm8-64H80v-16h88zm24 160h-16v-80h16zm32-43.156V480h-16V380a20 20 0 0140 0v7.911a61.756 61.756 0 00-24 48.933zM272 480h-32v-43.156a45.792 45.792 0 0116-34.827 45.792 45.792 0 0116 34.827zm32 0h-16v-43.156a61.756 61.756 0 00-24-48.933V380a20 20 0 0140 0zm32 0h-16v-80h16zm0-96h-16v-4a35.987 35.987 0 00-64-22.6 35.987 35.987 0 00-64 22.6v4h-16v-48h160zm-8-80v16H184v-16zm-127.745-16a228.063 228.063 0 0043.263-47.492L256 222.2l12.482 18.307A228.063 228.063 0 00311.745 288zm138.2 0a212.108 212.108 0 01-56.755-56.5l-19.092-28a8 8 0 00-13.22 0l-19.092 28a212.108 212.108 0 01-56.749 56.5h-17.48a230.789 230.789 0 0069.786-67.948L256 174.5l30.147 45.556A230.789 230.789 0 00355.933 288zM344 304h88v16h-88zm8 43.314L388.686 384H352zM400 480h-48v-32h48zm0-48h-48v-32h48zm32 48h-16v-80h16zm35.056-96h-55.743l-48-48h79.743zm-5.808-160l-19.2 64H386.28l-21.4-13.28a214.847 214.847 0 01-56.2-50.72zM312 160v-16h93.248l-19.2 64h-88.69l-26.471-40H304a8 8 0 008-8zm-72-54.111l16-32 16 32V120h-32zM216 136h80v16h-32l-5.172-5.172a4 4 0 00-5.656 0L248 152h-32zm-109.248 8H200v16a8 8 0 008 8h33.113l-26.471 40h-88.69zm96.574 80a214.847 214.847 0 01-56.2 50.72L125.72 288H69.952l-19.2-64z"/>
    </symbol>
    <symbol id="pray" viewBox="0 0 512 512">
        <path d="M67.792 413.056c1.124 4.56 5.208 7.609 9.702 7.609.792 0 1.597-.095 2.401-.292l48.348-11.916a10.001 10.001 0 007.606-9.58c1.272-98.037 1.803-99.306 29.55-165.672l26.802-60.06c2.264-5.037.014-10.956-5.023-13.22-5.039-2.263-10.958-.014-13.22 5.024l-27.011 60.54c-27.912 66.759-29.697 71.032-30.993 165.396L75.11 400.951c-5.364 1.324-8.64 6.742-7.318 12.105zM435.462 492.048c-24.836-2.396-49.702-7.584-71.911-15.003-5.237-1.747-10.902 1.08-12.653 6.317-1.749 5.238 1.079 10.903 6.317 12.653 23.618 7.889 50.011 13.401 76.325 15.94.327.031.651.047.973.047 5.09 0 9.443-3.87 9.942-9.04.53-5.497-3.496-10.384-8.993-10.914z"/><path d="M383.761 408.456l48.347 11.917c5.368 1.316 10.781-1.954 12.104-7.316 1.321-5.363-1.954-10.781-7.316-12.104l-40.844-10.066c-1.296-94.364-3.082-98.638-30.993-165.396L305.262 91.977c-7.944-17.684-26.642-21.313-40.202-15.754a30.706 30.706 0 00-9.058 5.752 30.706 30.706 0 00-9.058-5.752c-13.56-5.56-32.258-1.931-40.203 15.754-2.263 5.038-.014 10.956 5.024 13.22s10.957.014 13.22-5.024c3.402-7.572 10.886-6.875 14.37-5.444 3.125 1.281 7.899 4.693 4.756 13.141l-28.176 75.732c-11.406 2.043-21.021 11.205-24.314 24.11-4.714 18.466-8.971 36.251-13.087 53.451a6732.534 6732.534 0 01-6.315 26.233c-1.307 5.366 1.984 10.775 7.351 12.081 5.368 1.311 10.775-1.984 12.082-7.351a6771.311 6771.311 0 006.333-26.309c4.099-17.128 8.338-34.84 13.015-53.16 1.314-5.149 5.101-10.039 10.613-9.441.099.015.197.026.296.037 5.078.717 8.672 5.395 8.036 10.502-.643 5.16-1.736 15.223-2.793 24.954-1.049 9.653-2.133 19.637-2.757 24.639-3.424 27.461-2.409 30.757 6.569 48.295 1.706 3.332 3.639 7.108 5.979 11.976 10.388 21.226 8.64 50.32-5.499 91.563-15.083 43.995-90.87 70.686-154.903 76.866-5.497.531-9.523 5.418-8.993 10.915.499 5.171 4.852 9.04 9.942 9.04.321 0 .646-.016.973-.047 72.558-7.004 153.85-37.638 171.9-90.288a325.468 325.468 0 005.639-18.085 325.695 325.695 0 005.638 18.085c4.021 11.725 11.383 22.856 21.883 33.084a9.96 9.96 0 006.977 2.837 9.973 9.973 0 007.164-3.022c3.854-3.956 3.771-10.287-.186-14.141-8.232-8.02-13.925-16.513-16.918-25.244-14.14-41.243-15.887-70.338-5.468-91.626 2.31-4.805 4.242-8.581 5.948-11.913 8.978-17.537 9.992-20.834 6.568-48.295-.625-5.01-1.711-15.012-2.762-24.683-1.055-9.714-2.146-19.758-2.788-24.91-.309-2.478.378-4.943 1.935-6.942 1.524-1.959 3.688-3.219 6.105-3.56.097-.011.193-.023.29-.036 5.514-.604 9.301 4.29 10.615 9.441 4.671 18.297 8.905 35.987 13 53.095 2.095 8.753 4.189 17.505 6.35 26.374 1.307 5.366 6.716 8.654 12.082 7.35 5.366-1.307 8.656-6.716 7.35-12.082a7000.29 7000.29 0 01-6.331-26.297c-4.111-17.18-8.363-34.944-13.071-53.386-3.295-12.908-12.906-22.07-24.314-24.111l-28.176-75.732c-3.143-8.447 1.631-11.859 4.756-13.141 3.483-1.43 10.967-2.129 14.369 5.444l59.588 133.033c27.747 66.366 28.277 67.635 29.55 165.672a9.997 9.997 0 007.605 9.579zM276.153 187.428c-9.598 5.841-15.419 16.95-13.94 28.802.622 4.994 1.704 14.959 2.751 24.595 1.059 9.749 2.154 19.831 2.799 24.998 2.793 22.408 2.793 22.408-4.526 36.707-1.672 3.267-3.752 7.331-6.14 12.297a80.35 80.35 0 00-1.095 2.339 77.196 77.196 0 00-1.065-2.275c-2.418-5.029-4.499-9.095-6.171-12.36-7.319-14.299-7.319-14.299-4.525-36.707.643-5.16 1.736-15.223 2.793-24.954 1.049-9.653 2.133-19.637 2.757-24.639 1.477-11.852-4.344-22.961-13.94-28.802l20.152-54.163 20.15 54.162zM256.001 52.662c5.523 0 10-4.478 10-10V10c0-5.522-4.478-10-10-10s-10 4.478-10 10v32.662c0 5.523 4.478 10 10 10zM157.216 71.812a9.995 9.995 0 0013.66 3.66c4.783-2.761 6.422-8.877 3.66-13.66l-16.331-28.286c-2.762-4.783-8.878-6.423-13.66-3.66-4.783 2.761-6.422 8.877-3.66 13.66l16.331 28.286zM66.614 125.117L94.9 141.448a9.995 9.995 0 0013.66-3.66c2.762-4.783 1.123-10.898-3.66-13.66l-28.286-16.331c-4.781-2.76-10.898-1.123-13.66 3.66s-1.123 10.898 3.66 13.66zM85.75 222.913c0-5.522-4.477-10-10-10H43.089c-5.523 0-10 4.478-10 10s4.477 10 10 10H75.75c5.523 0 10-4.477 10-10zM341.127 75.472a9.997 9.997 0 0013.66-3.66l16.331-28.286c2.762-4.783 1.123-10.898-3.66-13.66-4.784-2.763-10.899-1.122-13.66 3.66l-16.331 28.286c-2.762 4.783-1.123 10.898 3.66 13.66zM412.113 142.79a9.954 9.954 0 004.99-1.342l28.286-16.331c4.783-2.762 6.422-8.877 3.66-13.66-2.762-4.781-8.877-6.421-13.66-3.66l-28.286 16.331c-4.783 2.762-6.422 8.877-3.66 13.66a9.997 9.997 0 008.67 5.002zM468.914 212.913h-32.661c-5.522 0-10 4.478-10 10s4.478 10 10 10h32.661c5.522 0 10-4.478 10-10s-4.477-10-10-10z"/><path d="M194.997 141.509a9.998 9.998 0 0013.416-4.472l.003-.007c2.47-4.939.466-10.942-4.474-13.412-4.938-2.473-10.948-.465-13.418 4.476-2.469 4.938-.466 10.945 4.473 13.415zM327.264 461.649l-.007-.003c-5.074-2.177-10.951.177-13.127 5.254-2.176 5.076.179 10.956 5.255 13.132a9.961 9.961 0 003.935.812 10.003 10.003 0 003.944-19.195z"/>
    </symbol>
    <symbol id="heli" viewBox="0 0 512 512">
        <path d="m502 86c5.523 0 10-4.477 10-10s-4.477-10-10-10h-193v-10c0-5.523-4.477-10-10-10s-10 4.477-10 10v10h-193c-5.523 0-10 4.477-10 10s4.477 10 10 10h193v30h-53c-4.089 0-7.766 2.489-9.285 6.286l-17.485 43.714h-104.23l-27-36c-1.889-2.518-4.853-4-8-4h-60c-3.318 0-6.42 1.646-8.281 4.394-1.86 2.748-2.236 6.239-1.004 9.32l21.801 54.503c-13.928 9.112-22.516 24.631-22.516 41.783 0 27.57 22.43 50 50 50 24.146 0 44.348-17.205 48.994-40h107.006v10c0 58.793 39.494 110.209 96.067 125.506l-32.247 64.494h-13.82c-16.542 0-30-13.458-30-30 0-5.523-4.477-10-10-10s-10 4.477-10 10c0 27.57 22.43 50 50 50h58c5.523 0 10-4.477 10-10s-4.477-10-10-10h-21.82l30.359-60.719c4.455.46 8.955.719 13.46.719h59.82l30 60h-21.819c-5.523 0-10 4.477-10 10s4.477 10 10 10h58c27.57 0 50-22.43 50-50 0-5.523-4.477-10-10-10s-10 4.477-10 10c0 16.542-13.458 30-30 30h-13.82l-30-60h23.82c38.598 0 70-31.402 70-70v-20c0-69.387-54.644-126.25-123.158-129.82l-17.557-43.894c-1.519-3.797-5.196-6.286-9.285-6.286h-53v-30zm-452 180c-16.542 0-30-13.458-30-30 0-16.911 13.702-30 30-30 16.542 0 30 13.458 30 30s-13.458 30-30 30zm392 100h-106c-60.685 0-110-48.648-110-110v-20c0-5.523-4.477-10-10-10h-117.006c-4.646-22.795-24.847-40-48.994-40-3.017 0-5.992.275-8.909.801l-16.32-40.801h40.229l27 36c1.889 2.518 4.853 4 8 4h189v70c0 27.57 22.43 50 50 50h153v10c0 27.57-22.43 50-50 50zm-70-180v100h-33c-16.542 0-30-13.458-30-30v-70zm119.541 100h-99.541v-99.541c52.69 4.771 94.77 46.851 99.541 99.541zm-124.311-120h-136.46l12-30h112.46z"/><circle cx="359" cy="456" r="10"/>
    </symbol>
    <symbol id="envelope" viewBox="0 0 512 512">
        <path d="m510.96 487.829c.686-1.142 1.025-2.471 1.041-3.799v-278.113c.18-2.574-.802-5.207-2.882-6.797l-67.118-52.445v-68.645c0-4.142-3.357-7.5-7.5-7.5h-89.95l-45.712-35.717c-24.324-19.007-58.377-19.105-82.809-.242l-46.579 35.959h-91.95c-4.143 0-7.5 3.358-7.5 7.5v69.275l-67.062 51.773c-1.83 1.398-2.942 3.65-2.938 5.953v66c0 4.143 3.357 7.5 7.5 7.5s7.5-3.357 7.5-7.5v-53.22l188.602 105.354-188.602 145.601v-162.736c0-4.143-3.357-7.5-7.5-7.5s-7.5 3.357-7.5 7.5v178c-.066 4.026 3.471 7.57 7.5 7.5h497c2.608.008 5.16-1.435 6.459-3.701zm-19.195-283.232-49.764 28.036v-66.921zm-266.569-158.153c19.004-14.67 45.49-14.593 64.406.188l30.585 23.898h-126.191zm-53.191 39.086h.009.006 254.981v155.554l-47.376 26.691c-3.608 2.033-4.886 6.606-2.853 10.216 2.044 3.643 6.673 4.866 10.216 2.853l110.013-61.979v249.787l-73.729-57.61c-3.263-2.549-7.977-1.972-10.528 1.292-2.55 3.265-1.972 7.978 1.292 10.528l68.685 53.669h-453.232l195.708-151.086c19.006-14.672 45.49-14.593 64.406.188l3.612 2.822c.005.004.009.007.014.011l94.016 73.461c3.265 2.55 7.977 1.973 10.528-1.292 2.55-3.265 1.972-7.978-1.292-10.528l-85.229-66.595 46.113-25.979c3.608-2.033 4.886-6.606 2.853-10.216-2.032-3.608-6.604-4.884-10.216-2.853l-51.562 29.049c-24.132-18.57-57.646-18.695-81.91-.31l-131.529-73.471v-154.202zm-102.004 145.822-48.923-27.329 48.923-37.769z"/><path d="m186.501 143.53h139c4.143 0 7.5-3.358 7.5-7.5s-3.357-7.5-7.5-7.5h-139c-4.143 0-7.5 3.358-7.5 7.5s3.357 7.5 7.5 7.5z"/><path d="m141.501 245.53h229c4.143 0 7.5-3.358 7.5-7.5s-3.357-7.5-7.5-7.5h-229c-4.143 0-7.5 3.358-7.5 7.5s3.357 7.5 7.5 7.5z"/><path d="m141.555 194.201h60.451c4.143 0 7.5-3.358 7.5-7.5s-3.357-7.5-7.5-7.5h-60.451c-4.143 0-7.5 3.358-7.5 7.5s3.357 7.5 7.5 7.5z"/><path d="m234.415 186.701c0 4.142 3.357 7.5 7.5 7.5h128.532c4.143 0 7.5-3.358 7.5-7.5s-3.357-7.5-7.5-7.5h-128.532c-4.143 0-7.5 3.358-7.5 7.5z"/>
    </symbol>
    <symbol id="headset" viewBox="0 0 60 59">
        <path d="m56 24h-1c-.0065229-1.3084985-.8603881-2.4618235-2.11-2.85-1.155845-11.77578926-11.0576211-20.75324679-22.89-20.75324679s-21.73415499 8.97745753-22.89 20.75324679c-1.24961191.3881765-2.10347712 1.5415015-2.11 2.85h-1c-2.209139 0-4 1.790861-4 4v8c0 2.209139 1.790861 4 4 4h1c0 1.6568542 1.34314575 3 3 3h1v4c0 4.9705627 4.0294373 9 9 9h3.14c.4547821 1.7614029 2.040843 2.9940928 3.86 3h10c2.209139 0 4-1.790861 4-4s-1.790861-4-4-4h-10c-1.819157.0059072-3.4052179 1.2385971-3.86 3h-3.14c-3.8659932 0-7-3.1340068-7-7v-4h1c1.6568542 0 3-1.3431458 3-3v-16c-.001261-1.2232967-.7451501-2.323303-1.88-2.78 1.0210863-8.5481587 8.2710724-14.98366669 16.88-14.98366669s15.8589137 6.43550799 16.88 14.98366669c-1.1348499.456697-1.878739 1.5567033-1.88 2.78v16c0 1.6568542 1.3431458 3 3 3h4c1.6568542 0 3-1.3431458 3-3h1c2.209139 0 4-1.790861 4-4v-8c0-2.209139-1.790861-4-4-4zm-31 29h10c1.1045695 0 2 .8954305 2 2s-.8954305 2-2 2h-10c-1.1045695 0-2-.8954305-2-2s.8954305-2 2-2zm-21-15c-1.1045695 0-2-.8954305-2-2v-8c0-1.1045695.8954305-2 2-2h1v12zm9 2c0 .5522847-.4477153 1-1 1h-4c-.55228475 0-1-.4477153-1-1v-16c0-.5522847.44771525-1 1-1h4c.5522847 0 1 .4477153 1 1zm17-36c-9.709839.01249263-17.8479189 7.3440961-18.87 17h-2c1.1882043-10.6289509 10.1748409-18.66695478 20.87-18.66695478s19.6817957 8.03800388 20.87 18.66695478h-2c-1.0220811-9.6559039-9.160161-16.98750737-18.87-17zm23 36c0 .5522847-.4477153 1-1 1h-4c-.5522847 0-1-.4477153-1-1v-16c0-.5522847.4477153-1 1-1h4c.5522847 0 1 .4477153 1 1zm5-4c0 1.1045695-.8954305 2-2 2h-1v-12h1c1.1045695 0 2 .8954305 2 2z"/>
    </symbol>
    <symbol id="hot-sale" viewBox="0 0 511 511.99978">
        <path d="m235.792969 347.265625c3.902343-3.910156 3.902343-10.238281 0-14.148437-3.90625-3.898438-10.234375-3.898438-14.144531 0-3.898438 3.910156-3.898438 10.238281 0 14.148437 3.910156 3.898437 10.238281 3.898437 14.144531 0zm0 0"/><path d="m188.449219 109.96875c0 60.636719 49.332031 109.972656 109.96875 109.972656s109.96875-49.335937 109.96875-109.972656-49.332031-109.96875-109.96875-109.96875-109.96875 49.332031-109.96875 109.96875zm199.945312 0c0 49.613281-40.363281 89.976562-89.976562 89.976562s-89.976563-40.363281-89.976563-89.976562c0-49.609375 40.363282-89.972656 89.976563-89.972656s89.976562 40.363281 89.976562 89.972656zm0 0"/><path d="m115.652344 509.042969c3.875 3.90625 10.183594 3.949219 14.109375.082031l48.46875-47.75c8.234375-8.234375 10.738281-20.425781 7.117187-31.023438l10.425782-10.054687c5.613281-5.421875 13.003906-8.410156 20.816406-8.410156h132.902344c23.578124 0 45.863281-9.054688 62.757812-25.496094.695312-.675781-5.277344 6.359375 90.667969-108.3125 14.230469-16.835937 12.101562-42.117187-4.75-56.363281-16.746094-14.113282-41.832031-12.085938-56.101563 4.460937l-58.992187 60.632813c-7.449219-9.167969-18.808594-14.882813-31.082031-14.882813h-111.480469c-15.863281-6.636719-32.695313-9.996093-50.0625-9.996093-48.140625 0-90.175781 22.234374-112.734375 63.921874-9.503906-1.800781-19.527344 1.074219-26.738282 8.285157l-47.558593 47.699219c-3.882813 3.894531-3.890625 10.195312-.015625 14.101562zm74.792968-227.121094c15.3125 0 30.117188 3.082031 44.011719 9.160156 1.265625.554688 2.628907.839844 4.007813.839844h113.527344c10.839843 0 19.996093 8.839844 19.996093 19.992187 0 11.027344-8.96875 19.996094-19.996093 19.996094h-81.566407c-5.519531 0-9.996093 4.476563-9.996093 9.996094 0 5.523438 4.476562 9.996094 9.996093 9.996094h81.566407c22.050781 0 39.988281-17.9375 39.988281-39.988282 0-1.757812-.125-3.5-.351563-5.226562 57.066406-58.660156 65.113282-66.902344 65.457032-67.3125 7.125-8.410156 19.773437-9.476562 28.1875-2.382812 8.421874 7.121093 9.488281 19.761718 2.34375 28.21875l-89.667969 107.195312c-13.09375 12.570312-30.285157 19.488281-48.457031 19.488281h-132.902344c-13.023438 0-25.351563 4.980469-34.703125 14.015625l-8.496094 8.199219-78.320313-78.316406c18.304688-34.339844 52.652344-53.871094 95.375-53.871094zm-125.320312 66.34375c3.296875-3.296875 8.359375-3.890625 12.378906-1.40625 1.730469 1.054687-3.238281-3.46875 86.589844 86.234375 3.996094 3.996094 3.78125 10.363281.054688 14.089844l-41.320313 40.707031-98.230469-98.980469zm0 0"/><path d="m286.421875 49.988281v11.714844c-11.636719 4.125-19.996094 15.238281-19.996094 28.273437 0 16.535157 13.453125 29.992188 29.992188 29.992188 5.511719 0 9.996093 4.484375 9.996093 9.996094 0 5.511718-4.484374 9.996094-9.996093 9.996094-4.269531 0-8.882813-2.683594-12.980469-7.5625-3.554688-4.226563-9.859375-4.769532-14.085938-1.21875-4.226562 3.554687-4.773437 9.859374-1.21875 14.085937 5.34375 6.355469 11.628907 10.785156 18.289063 13.019531v11.667969c0 5.523437 4.476563 9.996094 9.996094 9.996094s9.996093-4.472657 9.996093-9.996094v-11.714844c11.636719-4.128906 19.996094-15.242187 19.996094-28.273437 0-16.539063-13.453125-29.992188-29.992187-29.992188-5.511719 0-9.996094-4.484375-9.996094-9.996094 0-5.511718 4.484375-10 9.996094-10 3.542969 0 7.28125 1.808594 10.8125 5.226563 3.96875 3.839844 10.296875 3.734375 14.136719-.230469 3.839843-3.96875 3.734374-10.296875-.230469-14.136718-5.074219-4.910157-10.152344-7.6875-14.722657-9.203126v-11.644531c0-5.523437-4.476562-10-9.996093-10s-9.996094 4.476563-9.996094 10zm0 0"/>
    </symbol>
    <symbol id="appointment" viewBox="0 0 512 512">
        <path d="M462 44h-47.667V30c0-16.542-13.458-30-30-30s-30 13.458-30 30v14h-168V30c0-16.542-13.458-30-30-30s-30 13.458-30 30v14.37a9.979 9.979 0 0 0-2.666-.37H83.823c-27.57 0-50 22.43-50 50v170.333c0 5.523 4.478 10 10 10s10-4.477 10-10V147h360.51c5.522 0 10-4.477 10-10s-4.478-10-10-10H53.823V94c0-16.542 13.458-30 30-30h39.844c.925 0 1.816-.136 2.666-.37V76.5c0 16.542 13.458 30 30 30s30-13.458 30-30V64h168v12.5c0 16.542 13.458 30 30 30s30-13.458 30-30V64H462c16.542 0 30 13.458 30 30v379.994c0 9.928-8.077 18.006-18.006 18.006s-18.006-8.078-18.006-18.006v-25.869c0-5.523-4.478-10-10-10H329.667c-5.522 0-10 4.477-10 10s4.478 10 10 10h106.321v15.869A37.775 37.775 0 0 0 440.533 492H38c-9.925 0-18-8.075-18-18v-15.875h223.825c5.522 0 10-4.477 10-10s-4.478-10-10-10h-99.916c17.474-15.049 28.57-37.309 28.57-62.125 0-45.215-36.785-82-82-82s-82 36.785-82 82c0 24.816 11.096 47.076 28.57 62.125H10c-5.522 0-10 4.477-10 10V474c0 20.953 17.047 38 38 38h435.994C494.95 512 512 494.951 512 473.994V94c0-27.57-22.43-50-50-50zM166.333 76.5c0 5.514-4.486 10-10 10s-10-4.486-10-10V30c0-5.514 4.486-10 10-10s10 4.486 10 10v46.5zm228 0c0 5.514-4.486 10-10 10s-10-4.486-10-10V30c0-5.514 4.486-10 10-10s10 4.486 10 10v46.5zM28.479 376c0-34.187 27.813-62 62-62s62 27.813 62 62-27.813 62-62 62-62-27.813-62-62z"/><path d="M468.309 129.93a10.072 10.072 0 0 0-7.069-2.93c-2.631 0-5.21 1.07-7.07 2.93-1.86 1.86-2.93 4.44-2.93 7.07s1.069 5.21 2.93 7.07a10.076 10.076 0 0 0 7.07 2.93c2.63 0 5.21-1.07 7.069-2.93 1.86-1.86 2.931-4.44 2.931-7.07s-1.07-5.21-2.931-7.07zm-169.66 311.12c-1.859-1.86-4.439-2.92-7.069-2.92s-5.21 1.06-7.07 2.92a10.093 10.093 0 0 0-2.93 7.07c0 2.64 1.069 5.21 2.93 7.08 1.86 1.86 4.44 2.92 7.07 2.92s5.21-1.06 7.069-2.92a10.118 10.118 0 0 0 2.931-7.08c0-2.63-1.07-5.2-2.931-7.07zM226.245 304c-20.953 0-38 17.047-38 38s17.047 38 38 38 38-17.047 38-38-17.047-38-38-38zm0 56c-9.925 0-18-8.075-18-18s8.075-18 18-18 18 8.075 18 18-8.075 18-18 18zm93.333-56c-20.953 0-38 17.047-38 38s17.047 38 38 38 38-17.047 38-38-17.047-38-38-38zm0 56c-9.925 0-18-8.075-18-18s8.075-18 18-18 18 8.075 18 18-8.075 18-18 18zm93.334-56c-20.953 0-38 17.047-38 38s17.047 38 38 38 38-17.047 38-38-17.047-38-38-38zm0 56c-9.925 0-18-8.075-18-18s8.075-18 18-18 18 8.075 18 18-8.075 18-18 18zm-280-160c-20.953 0-38 17.047-38 38s17.047 38 38 38 38-17.047 38-38-17.047-38-38-38zm0 56c-9.925 0-18-8.075-18-18s8.075-18 18-18 18 8.075 18 18-8.075 18-18 18zm186.666-56c-20.953 0-38 17.047-38 38s17.047 38 38 38 38-17.047 38-38-17.047-38-38-38zm0 56c-9.925 0-18-8.075-18-18s8.075-18 18-18 18 8.075 18 18-8.075 18-18 18zm93.334-56c-20.953 0-38 17.047-38 38s17.047 38 38 38 38-17.047 38-38-17.047-38-38-38zm0 56c-9.925 0-18-8.075-18-18s8.075-18 18-18 18 8.075 18 18-8.075 18-18 18zm-186.667-56c-20.953 0-38 17.047-38 38s17.047 38 38 38 38-17.047 38-38-17.047-38-38-38zm0 56c-9.925 0-18-8.075-18-18s8.075-18 18-18 18 8.075 18 18-8.075 18-18 18zm-100.141 95.629c-3.906-3.905-10.236-3.905-14.143 0l-32.566 32.567-11.129-11.129c-3.906-3.905-10.236-3.905-14.143 0-3.905 3.905-3.905 10.237 0 14.143l18.201 18.199a10.003 10.003 0 0 0 14.142 0l39.638-39.638c3.905-3.905 3.905-10.237 0-14.142z"/>
    </symbol>
    </defs>
</svg>