<svg width="467" height="512" xmlns="http://www.w3.org/2000/svg" xml:space="preserve">
<g fill="currentColor">
    <path d="M52.29 354.079a7.5 7.5 0 0 0 7.5-7.5v-14.5c0-4.142-3.356-7.5-7.5-7.5s-7.5 3.358-7.5 7.5v14.5a7.5 7.5 0 0 0 7.5 7.5zm57.584 0a7.5 7.5 0 0 0 7.5-7.5v-14.5c0-4.142-3.357-7.5-7.5-7.5s-7.5 3.358-7.5 7.5v14.5a7.5 7.5 0 0 0 7.5 7.5zm-28.792 0a7.5 7.5 0 0 0 7.5-7.5v-14.5c0-4.142-3.357-7.5-7.5-7.5s-7.5 3.358-7.5 7.5v14.5a7.5 7.5 0 0 0 7.5 7.5zm268.772 0a7.5 7.5 0 0 0 7.5-7.5v-14.5a7.5 7.5 0 0 0-7.5-7.5 7.499 7.499 0 0 0-7.5 7.5v14.5a7.5 7.5 0 0 0 7.5 7.5zm57.583 0a7.5 7.5 0 0 0 7.5-7.5v-14.5a7.5 7.5 0 0 0-7.5-7.5 7.499 7.499 0 0 0-7.5 7.5v14.5a7.5 7.5 0 0 0 7.5 7.5zm-28.792 0a7.5 7.5 0 0 0 7.5-7.5v-14.5a7.5 7.5 0 0 0-7.5-7.5 7.499 7.499 0 0 0-7.5 7.5v14.5a7.5 7.5 0 0 0 7.5 7.5z"/>
    <path d="M459.332 445.246h-5.833V309.413h5.833a7.5 7.5 0 0 0 .019-14.999l-41.352-34.896v-12.292c0-4.142-3.357-7.5-7.5-7.5s-7.5 3.358-7.5 7.5v8.275H354.29v-52.589h48.708v9.313c0 4.142 3.357 7.5 7.5 7.5s7.5-3.358 7.5-7.5v-41.08a52.521 52.521 0 0 0 28.07-12.7c7.872-6.935 3.1-20.215-7.827-20.215-21.57 0-36.148.61-54.646-18.345a20.213 20.213 0 0 0-14.387-6.062h-16.152V91.256h.266a7.5 7.5 0 0 0 7.5-7.5 7.5 7.5 0 0 0-7.5-7.5h-3.415l-17.836-31.167c-2.13-3.722-5.315-6.514-9.074-8.104V7.5c0-4.142-3.356-7.5-7.5-7.5s-7.5 3.358-7.5 7.5v29.485c-3.76 1.59-6.944 4.382-9.074 8.104l-17.836 31.167h-3.415a7.5 7.5 0 0 0-7.5 7.5 7.5 7.5 0 0 0 7.5 7.5h.266v22.567h-16.152a20.217 20.217 0 0 0-14.39 6.064c-12.376 12.688-26.078 18.344-41.074 18.344h-13.568c-10.92 0-15.705 13.276-7.828 20.214A52.525 52.525 0 0 0 213 171.146v84.355h-58.532v-23.004a43.968 43.968 0 0 0 28.786-10.989c7.356-6.483 2.878-18.868-7.284-18.868-16.1 0-28.283.917-43.248-14.432-1.492-1.529-3.26-2.746-5.174-3.642v-17.238c3.565-.58 6.29-3.664 6.29-7.394a7.5 7.5 0 0 0-7.5-7.5h-1.94l-14.04-24.532c-1.718-3.004-4.213-5.324-7.162-6.777V98.158a7.5 7.5 0 0 0-7.5-7.5 7.5 7.5 0 0 0-7.5 7.5v22.967c-2.95 1.452-5.443 3.772-7.163 6.777l-14.038 24.532h-1.941a7.5 7.5 0 0 0-7.5 7.5c0 3.729 2.725 6.814 6.29 7.394v17.238c-1.914.896-3.68 2.113-5.172 3.642-14.241 14.591-25.094 14.433-43.25 14.433-10.17 0-14.636 12.393-7.283 18.868a43.959 43.959 0 0 0 28.786 10.989v23.004h-18.22c-7.833 0-14.205 6.373-14.205 14.206v25.334a7.499 7.499 0 0 0 3 14.372H16v90.263c-6.585 1.583-11.5 7.507-11.5 14.571v31c0 7.064 4.915 12.988 11.5 14.571v37.186h-4a7.5 7.5 0 0 0-7.5 7.5c0 4.143 3.357 7.5 7.5 7.5h198.667c4.143 0 7.5-3.357 7.5-7.5a7.5 7.5 0 0 0-7.5-7.5h-4v-36.756h252.666c4.143 0 7.5-3.358 7.5-7.5s-3.358-7.503-7.501-7.503zm-439.833 0v-31h183.667v31H19.499zm11.5-63.584h100.167v17.583H30.999v-17.583zm115.167-72.25h45.5v89.833h-45.5v-89.833zm292.333 57.25H296.722a7.498 7.498 0 0 0-7.5 7.5c0 4.142 3.356 7.5 7.5 7.5h141.777v63.583H218.166v-31c0-6.992-4.9-13.005-11.5-14.588v-17.995h55.056a7.5 7.5 0 0 0 7.5-7.5c0-4.143-3.357-7.5-7.5-7.5h-55.056v-57.25h231.833v57.25zm-210.5-195.083h48.707v16.333h-48.707v-16.333zm95 83.922-.001-60.089a7.5 7.5 0 0 0-15 0v60.089h-16.292v-83.922h47.585v83.922h-16.292zm31.292-67.589v-16.333h48.708v16.333H354.29zM311.944 52.539c1.572-2.749 5.535-2.752 7.109 0l13.57 23.717H298.37l13.574-23.717zm-19.006 38.717h45.12v22.567h-45.12V91.256zm-34.803 39.105a5.127 5.127 0 0 1 3.65-1.538H369.21c1.366 0 2.696.561 3.649 1.538 14.277 14.627 30.778 22.87 53.958 22.87-5.611 2.546-10.75 3.348-16.311 3.348H219.659a37.466 37.466 0 0 1-15.483-3.348c23.02 0 39.58-8.131 53.959-22.87zm-30.136 72.551h48.707v52.589h-48.707v-52.589zM78.843 167.434h33.704v15.433H78.843v-15.433zm15.207-32.081c.728-1.272 2.559-1.277 3.288 0l9.775 17.082H84.275l9.775-17.082zm-24.644 63.33a2.72 2.72 0 0 1 1.938-.816h48.704a2.72 2.72 0 0 1 1.937.815c9.897 10.151 21.409 16.776 36.159 18.548-1.31.182-2.636.274-3.972.274H37.219c-1.336 0-2.662-.092-3.972-.274 14.505-1.742 26.045-8.188 36.159-18.547zm-17.483 33.82h87.544v22.998H51.923v-22.998zm-32.424 37.998h388.259l28.333 23.911H19.499v-23.911zm111.667 38.911v57.25H30.999v-57.25h100.167zM30.999 497.002v-36.756h160.667v36.756H30.999z"/>
</g>
</svg>