<svg data-name="Layer 1" xmlns="http://www.w3.org/2000/svg" viewBox="0 0 98.18 122.88" fill="currentColor"><path class="cls-1" d="M27.23 65.62a1.75 1.75 0 0 1 2.5 0 1.8 1.8 0 0 1 0 2.53l-3 3.06 3 3.06a1.77 1.77 0 0 1-2.51 2.51l-3-3-3 3a1.75 1.75 0 0 1-2.5 0 1.81 1.81 0 0 1 0-2.53l3-3.06-3-3.06a1.78 1.78 0 0 1 0-2.51 1.74 1.74 0 0 1 2.48 0l3 3 3-3ZM25.85 22A3.93 3.93 0 0 1 22 18.12v-1.31H5.71a.62.62 0 0 0-.59.6v99.71a.6.6 0 0 0 .59.59h86.76a.6.6 0 0 0 .59-.59V17.41a.62.62 0 0 0-.59-.59H76.53v1.31A3.93 3.93 0 0 1 72.65 22ZM5.75 122.88A5.76 5.76 0 0 1 0 117.13V17.41a5.76 5.76 0 0 1 5.75-5.75H22v-1.22a3.91 3.91 0 0 1 3.9-3.89h6.92V4.3A4.36 4.36 0 0 1 37.11 0h24a4.37 4.37 0 0 1 4.3 4.3v2.26h7.19a3.91 3.91 0 0 1 3.89 3.89v1.22h15.94a5.76 5.76 0 0 1 5.75 5.75v99.71a5.76 5.76 0 0 1-5.75 5.75Zm72.44-23.83a2.6 2.6 0 0 0 0-5.2H43.57a2.6 2.6 0 1 0 0 5.2h34.62Zm0-50a2.6 2.6 0 1 0 0-5.2H43.57a2.6 2.6 0 0 0 0 5.2Zm0 24.64a2.6 2.6 0 1 0 0-5.2H43.57a2.6 2.6 0 1 0 0 5.2ZM18.83 96.31a2.31 2.31 0 0 1 3.84-2.57l1.26 1.87 5-6.07a2.3 2.3 0 1 1 3.56 2.92l-6.9 8.4a2.49 2.49 0 0 1-.55.52 2.31 2.31 0 0 1-3.2-.63l-3-4.44Zm.63-50.57a2.32 2.32 0 0 1 3.21.63l1.26 1.87 5-6.07a2.3 2.3 0 1 1 3.56 2.92l-6.9 8.4A2.49 2.49 0 0 1 25 54a2.31 2.31 0 0 1-3.2-.63l-3-4.44a2.31 2.31 0 0 1 .63-3.2Z"/></svg>