<svg xmlns="http://www.w3.org/2000/svg" viewBox="0 0 488.297 488.297" style="enable-background:new 0 0 488.297 488.297" xml:space="preserve"><path d="M395.728 63.273c54.478 9.933 85.381 32.556 85.771 32.848a4.247 4.247 0 0 0 5.452-.3 4.25 4.25 0 0 0 .654-5.425c-28.371-43.471-81.87-65.406-121.755-76.153-42.905-11.562-78.625-12.978-80.125-13.032a3.955 3.955 0 0 0-.154-.003H4.25a4.25 4.25 0 0 0-.802 8.424c89.334 17.19 103.312 52.244 103.429 52.557a4.25 4.25 0 0 0 4.013 2.851h55.659v188.434c-7.461 2.42-12.942 10.184-12.942 19.38 0 5.102-1.104 7.395-2.501 10.299-1.566 3.255-3.342 6.944-3.342 13.985 0 7.041 1.775 10.73 3.342 13.985 1.398 2.904 2.501 5.198 2.501 10.3 0 5.105-1.104 7.399-2.502 10.304-1.565 3.256-3.341 6.945-3.341 13.986 0 7.043 1.775 10.733 3.342 13.989 1.398 2.904 2.501 5.198 2.501 10.301s-1.104 7.396-2.501 10.301c-1.566 3.256-3.342 6.946-3.342 13.988 0 7.041 1.775 10.73 3.342 13.986 1.398 2.904 2.501 5.199 2.501 10.303 0 5.105-1.104 7.399-2.501 10.304-1.566 3.256-3.342 6.946-3.342 13.988 0 7.043 1.775 10.733 3.342 13.99 1.398 2.904 2.501 5.199 2.501 10.303 0 .064.001.127.004.191.209 10.922 8.138 19.734 17.854 19.734h33.62c9.848 0 17.859-9.051 17.859-20.175V272.852c0-9.372-5.695-17.25-13.376-19.506V65.039h70.826c.274 0 .548-.026.817-.079 21.254-4.165 42.455-6.276 63.016-6.276 17.354-.001 37.149 2.184 51.501 4.589zM214.442 272.852v194.063c0 6.438-4.198 11.675-9.359 11.675h-33.62c-5.16 0-9.357-5.237-9.357-11.675l-.002-.119c-.061-6.803-1.801-10.42-3.339-13.618-1.398-2.906-2.502-5.201-2.502-10.306 0-5.104 1.104-7.398 2.501-10.303 1.566-3.257 3.342-6.947 3.342-13.989 0-7.042-1.775-10.732-3.342-13.988-1.397-2.904-2.501-5.198-2.501-10.301s1.104-7.398 2.501-10.303c1.566-3.256 3.342-6.945 3.342-13.986s-1.775-10.73-3.341-13.986c-1.398-2.904-2.502-5.199-2.502-10.304 0-5.103 1.104-7.396 2.501-10.301 1.566-3.256 3.342-6.946 3.342-13.989 0-7.041-1.775-10.73-3.342-13.985-1.397-2.904-2.501-5.198-2.501-10.3 0-5.103 1.104-7.396 2.501-10.3 1.566-3.255 3.342-6.944 3.342-13.984 0-6.438 4.197-11.675 9.357-11.675h20.974v151.943a4.249 4.249 0 0 0 4.25 4.25 4.249 4.249 0 0 0 4.25-4.25V261.177h4.146c5.161 0 9.359 5.238 9.359 11.675zm-13.376-20.175h-26.018V65.039h26.018v187.638zM426.563 61.752v-9.917a4.249 4.249 0 0 0-4.25-4.25 4.249 4.249 0 0 0-4.25 4.25v7.552a276.856 276.856 0 0 0-19.38-4.3V43.369a4.249 4.249 0 0 0-4.25-4.25 4.249 4.249 0 0 0-4.25 4.25v10.28a293.015 293.015 0 0 0-19.38-2.324V40.033a4.249 4.249 0 0 0-4.25-4.25 4.249 4.249 0 0 0-4.25 4.25v10.683a310.784 310.784 0 0 0-18.078-.532c-.433 0-.87.015-1.303.017V34.9a4.249 4.249 0 0 0-4.25-4.25 4.249 4.249 0 0 0-4.25 4.25v15.455c-6.416.2-12.882.601-19.381 1.191V28.232a4.249 4.249 0 0 0-4.25-4.25 4.249 4.249 0 0 0-4.25 4.25v23.603c0 .2.032.391.059.584a350.993 350.993 0 0 0-26.619 4.12H113.577C109.28 48.589 92.856 25.985 39.5 9.708h245.985c1.807.074 37.063 1.67 78.154 12.742 32.525 8.763 74.372 25.141 102.783 54.925-9.862-4.967-23.233-10.702-39.859-15.623z"/><path d="M188.92 14.254c-9.957 0-18.058 8.101-18.058 18.057 0 9.958 8.101 18.059 18.058 18.059 9.957 0 18.058-8.1 18.058-18.059-.001-9.957-8.101-18.057-18.058-18.057zm0 27.615c-5.27 0-9.558-4.288-9.558-9.559 0-5.269 4.287-9.557 9.558-9.557s9.558 4.287 9.558 9.557c-.001 5.271-4.288 9.559-9.558 9.559zM405.03 146.154H290.403c-11.873 0-21.533 9.66-21.533 21.534v141.708c0 .227.012.448.027.672l.001.029-.008.267c-.011.321-.02.644-.02.968 0 34.329 27.929 62.258 62.257 62.258 31.404 0 59.304-23.44 63.585-53.393l31.762-151.638c.06-.286.09-.578.09-.871-.001-11.874-9.661-21.534-21.534-21.534zM306.718 299.05l-.005-111.922c0-5.374 2.811-9.39 5.325-9.39h63.493c2.469 0 5.225 3.875 5.321 9.107l-16.996 119.45c-.008.061-.016.121-.021.182-1.885 19.133-14.455 33.561-29.239 33.561-15.635 0-27.883-17.376-27.883-39.559 0-.194.005-.387.009-.579l.008-.365a4.817 4.817 0 0 0 0-.17l-.012-.315zm79.721-91.126h23.104l-18.253 87.139h-17.25l12.399-87.139zm24.885-8.5h-23.675l1.664-11.697c.027-.198.042-.398.042-.599 0-10.031-6.072-17.89-13.824-17.89h-63.493c-7.752 0-13.825 7.858-13.825 17.89v111.824c0 .168.006.332.014.497l.002.046-.004.209c-.006.259-.012.516-.012.775 0 13.017 3.642 25.065 10.255 33.927 6.801 9.113 16.079 14.132 26.128 14.132 19.15 0 35.339-17.678 37.69-41.134l.547-3.842h16.68l-3.148 15.028a5.285 5.285 0 0 0-.049.28c-3.637 25.917-27.878 46.219-55.188 46.219-29.642 0-53.757-24.115-53.757-53.758 0-.229.009-.456.016-.684l.016-.51a4.175 4.175 0 0 0-.002-.25 12.774 12.774 0 0 0-.022-.396l-.008-.097V167.688c0-7.188 5.847-13.034 13.033-13.034H405.03c7.049 0 12.81 5.626 13.027 12.624l-6.733 32.146z"/><path d="M402.539 214.329a4.25 4.25 0 1 0-8.368-1.496l-13.273 74.231a4.25 4.25 0 0 0 8.368 1.496l13.273-74.231z"/></svg>