<!-- icon666.com - MILLIONS vector ICONS FREE --><svg id="Capa_1" enable-background="new 0 0 511.837 511.837" viewBox="0 0 511.837 511.837" xmlns="http://www.w3.org/2000/svg"><g><g id="Page-1_33_"><g id="_x30_34---Forest-Route-Pin"><path id="Shape_337_" d="m196.267 330.421c0-42.415-34.385-76.8-76.8-76.8s-76.8 34.385-76.8 76.8 34.385 76.8 76.8 76.8c42.394-.052 76.748-34.406 76.8-76.8zm-76.8 59.733c-32.99 0-59.733-26.744-59.733-59.733s26.744-59.733 59.733-59.733 59.733 26.744 59.733 59.733c-.038 32.974-26.759 59.695-59.733 59.733z"/><path id="Shape_336_" d="m502.417 48.889c-1.075.102-3.243 0-6.281-.102-27.785-.853-112.333-3.328-149.922 56.687-2.503 4.006-1.284 9.282 2.722 11.785s9.282 1.284 11.785-2.722c20.881-33.357 60.399-44.254 92.629-47.582-25.148 13.653-52.284 36.565-60.587 73.882-7.347 33.058 5.444 62.763 17.818 91.494 18.304 42.488 35.584 82.62-7.561 135.356-55.825 68.207-189.687 104.644-251.127 118.263 25.003-24.474 63.881-68.011 79.821-115.106 27.524-8.202 52.632-22.994 73.148-43.093 47.787-50.569 48.384-85.879 44.945-117.709-.601-4.598-4.764-7.875-9.375-7.379s-7.981 4.584-7.59 9.205c3.26 30.14 2.466 58.786-40.38 104.158-15.723 15.535-34.675 27.416-55.509 34.799 1.276-6.727 1.939-13.556 1.98-20.403 0-65.98-53.487-119.467-119.467-119.467s-119.466 53.486-119.466 119.466c0 81.732 97.425 165.879 108.535 175.206 4.358 3.73 10.332 4.949 15.804 3.226.247 0 .486 0 .742-.068 36.028-6.374 219.392-42.615 291.123-130.295 49.715-60.766 28.629-109.722 10.027-152.917-11.819-27.435-22.989-53.359-16.836-81.067 13.858-62.268 94.865-78.618 95.676-78.771 4.416-.867 7.358-5.068 6.665-9.515-.678-4.525-4.763-7.738-9.319-7.331zm-485.35 281.532c0-56.554 45.846-102.4 102.4-102.4s102.4 45.846 102.4 102.4c0 60.1-64.393 130.193-102.357 162.133-38.051-31.94-102.443-102.033-102.443-162.133z"/><path id="Shape_335_" d="m278.033 387.44c-13.793 6.301-28.059 11.511-42.667 15.582-4.109 1.15-6.737 5.158-6.153 9.385s4.199 7.373 8.466 7.366c.782-.004 1.56-.113 2.313-.324 15.485-4.311 30.607-9.832 45.227-16.512 2.858-1.218 4.828-3.893 5.143-6.984s-1.074-6.108-3.627-7.879c-2.553-1.77-5.866-2.013-8.65-.634z"/><path id="Shape_334_" d="m371.584 320.01c3.273-.001 6.256-1.874 7.68-4.821 5.376-10.974 9.355-22.579 11.844-34.543.608-2.993-.429-6.083-2.721-8.102s-5.488-2.66-8.38-1.679-5.041 3.432-5.633 6.428c-2.203 10.555-5.72 20.793-10.47 30.473-.986 2.038-1.122 4.384-.378 6.522s2.308 3.893 4.346 4.878c1.157.56 2.426.849 3.712.844z"/><path id="Shape_333_" d="m345.25 336.761c-7.804 9.493-16.614 18.114-26.274 25.711-2.499 1.854-3.79 4.921-3.37 8.004s2.484 5.693 5.387 6.812 6.185.569 8.565-1.435c10.634-8.362 20.331-17.853 28.919-28.305 1.927-2.363 2.447-5.574 1.364-8.424s-3.604-4.906-6.613-5.393c-3.01-.488-6.051.667-7.978 3.03z"/><path id="Shape_332_" d="m189.781 176.419c2.922 5.493 8.634 8.929 14.857 8.934h42.829v68.267c0 9.426 7.641 17.067 17.067 17.067h17.066c9.426 0 17.067-7.641 17.067-17.067v-68.267h42.846c6.223-.004 11.936-3.44 14.857-8.934 3.01-5.6 2.681-12.405-.853-17.69l-39.671-58.709h.324c6.269-.008 12.017-3.491 14.925-9.045 2.962-5.588 2.591-12.356-.964-17.587l-42.906-63.65c-3.173-4.703-8.475-7.522-14.148-7.522s-10.976 2.819-14.148 7.522l-42.914 63.633c-3.568 5.235-3.943 12.016-.973 17.613 2.914 5.555 8.669 9.035 14.942 9.037h.324l-39.68 58.752c-3.522 5.274-3.847 12.06-.847 17.646zm91.819 77.202h-17.067v-68.267h17.067zm-28.16-157.355c1.768-2.616 1.947-5.995.466-8.783-1.482-2.788-4.382-4.531-7.54-4.529h-16.213l42.914-63.667 42.94 63.667h-16.213c-3.158-.002-6.058 1.741-7.54 4.529s-1.303 6.167.466 8.783l48.794 72.021h-136.714z"/></g></g></g></svg>