<svg id="Capa_1" fill="currentColor" enable-background="new 0 0 512.001 512.001" viewBox="0 0 512.001 512.001" xmlns="http://www.w3.org/2000/svg">
                    <g>
                      <path d="m335.446 44.436c4.143 0 7.5-3.357 7.5-7.5v-29.436c0-4.143-3.357-7.5-7.5-7.5s-7.5 3.357-7.5 7.5v29.436c0 4.142 3.358 7.5 7.5 7.5z">
                      </path>
                      <path d="m265.055 53.624c1.482 1.713 3.572 2.591 5.673 2.591 1.74 0 3.487-.602 4.906-1.83 3.132-2.711 3.473-7.447.761-10.579l-19.102-22.063c-2.711-3.133-7.448-3.473-10.579-.761-3.132 2.711-3.473 7.447-.761 10.579z">
                      </path>
                      <path d="m395.259 54.385c1.419 1.229 3.166 1.83 4.906 1.83 2.101 0 4.19-.878 5.673-2.591l19.102-22.063c2.712-3.132 2.371-7.868-.761-10.579-3.132-2.712-7.869-2.371-10.579.761l-19.102 22.063c-2.712 3.132-2.371 7.868.761 10.579z">
                      </path>
                      <path d="m319.907 279.276c4.356 4.189 9.948 6.283 15.539 6.283s11.183-2.094 15.539-6.283l115.37-110.922c8.163-7.848 9.186-20.591 2.378-29.641l-15.485-20.584c-2.489-3.31-7.192-3.975-10.502-1.484-3.311 2.49-3.975 7.192-1.484 10.502l13.297 17.677h-59.532l-15.815-52.206h32.371c2.319 0 4.535 1.106 5.93 2.959l5.723 7.606c2.49 3.31 7.192 3.975 10.502 1.484 3.311-2.49 3.975-7.192 1.484-10.502l-5.723-7.606c-4.212-5.599-10.91-8.941-17.916-8.941h-152.272c-7.007 0-13.705 3.343-17.917 8.941l-39.233 52.154c-6.808 9.049-5.786 21.791 2.377 29.641zm-44.45-119.452 42.949 97.201-101.099-97.201zm178.128 0-101.095 97.197 42.948-97.198h58.147zm-118.138 98.653-43.591-98.653h87.182zm28.092-165.859 15.814 52.206h-87.812l15.813-52.206zm-110.159 2.959c1.395-1.853 3.611-2.959 5.931-2.959h32.371l-15.814 52.206h-59.535z">
                      </path>
                      <path d="m458.059 372.214-45.935 27.942c-44.737 27.213-98.802 33.07-148.328 16.069-7.259-2.491-12.235-8.515-13.313-16.112-1.077-7.598 2.027-14.769 8.307-19.181l47.772-33.571c12.439-8.741 15.58-25.5 7.148-38.15-6.397-9.603-17.809-14.21-29.084-11.737l-122.731 26.926v-1.55c0-10.725-8.725-19.449-19.449-19.449h-61.499c-4.143 0-7.5 3.357-7.5 7.5s3.357 7.5 7.5 7.5h61.498c2.453 0 4.449 1.996 4.449 4.449v169.702c0 2.453-1.996 4.448-4.449 4.448h-127.113c-.183 0-.332-.148-.332-.331v-177.937c0-.183.149-.331.332-.331h35.629c4.143 0 7.5-3.357 7.5-7.5s-3.357-7.5-7.5-7.5h-35.629c-8.454 0-15.332 6.878-15.332 15.331v177.938c0 8.452 6.878 15.33 15.332 15.33h127.113c10.725 0 19.449-8.725 19.449-19.448v-3.813l4.393 1.267c33.148 9.564 67.112 14.368 101.401 14.367 12.853 0 25.758-.675 38.673-2.028 47.772-5.003 93.381-19.034 135.56-41.702 3.648-1.961 5.017-6.509 3.056-10.157-1.96-3.648-6.508-5.02-10.157-3.056-40.452 21.741-84.197 35.197-130.021 39.997-45.441 4.757-90.646.777-134.354-11.833l-8.551-2.467v-133.37l125.946-27.631c5.192-1.141 10.441.981 13.387 5.402 3.881 5.823 2.436 13.536-3.291 17.56l-47.772 33.571c-10.822 7.605-16.391 20.466-14.532 33.562s10.784 23.898 23.294 28.192c53.755 18.452 112.435 12.097 160.993-17.442l45.936-27.942c13.169-8.013 31.526.716 31.14 13.746-.118 4.017-1.966 7.785-5.068 10.34-9.938 8.181-20.428 15.893-31.179 22.922-3.467 2.267-4.439 6.915-2.173 10.382 2.269 3.468 6.917 4.439 10.382 2.173 11.208-7.328 22.144-15.368 32.503-23.896 6.444-5.305 10.282-13.133 10.528-21.477.765-25.843-31.427-40.696-53.929-27.005z">
                      </path>
                      <path d="m108.824 445.273v-16.267c0-4.143-3.357-7.5-7.5-7.5s-7.5 3.357-7.5 7.5v16.267c0 4.143 3.357 7.5 7.5 7.5s7.5-3.358 7.5-7.5z">
                      </path>
                    </g>
                  </svg>