<svg xmlns="http://www.w3.org/2000/svg" fill="currentColor" xml:space="preserve" width="512" height="363" shape-rendering="geometricPrecision" text-rendering="geometricPrecision" image-rendering="optimizeQuality" fill-rule="evenodd" clip-rule="evenodd" viewBox="0 0 512 362.66">
                    <path fill-rule="nonzero" d="M11.24 98.47H26.4V61.24a9.36 9.36 0 0 1 9.36-9.36h16.65V29.54c0-5.18 4.19-9.37 9.36-9.37h135.09c5.17 0 9.36 4.19 9.36 9.37v22.34h104.44c4.47-7.27 9.78-14 15.79-20.01C346.15 12.18 373.32 0 403.31 0c29.98 0 57.16 12.18 76.82 31.83C499.82 51.53 512 78.71 512 108.69c0 30.02-12.17 57.2-31.83 76.86-13.23 13.23-29.9 23.08-48.53 28.11l-17.61 120.12c-2.08 15.55-13.57 28.88-30 28.88H55.51c-16.54 0-28.37-13.33-30.09-29.15L.05 108.81c-.53-5.13 3.21-9.74 8.35-10.27 1.01-.1 1.8-.07 2.84-.07zm416.15-6.9v-5.93c0-7.02-2.74-13.4-7.16-17.98-4.34-4.55-10.33-7.37-16.92-7.37-6.59 0-12.58 2.82-16.93 7.37-4.42 4.58-7.16 10.96-7.16 17.98v5.93h48.17zm-28.58 33.26-5.92 15.51h20.83l-5.49-15.7c3.5-1.8 5.87-5.42 5.87-9.61 0-5.98-4.82-10.8-10.79-10.8-5.95 0-10.79 4.82-10.79 10.8 0 4.34 2.58 8.11 6.29 9.8zm-30.34-33.26v-5.93c0-9.87 3.89-18.88 10.18-25.42 6.31-6.58 15.02-10.69 24.66-10.69s18.36 4.09 24.66 10.69c6.28 6.54 10.18 15.53 10.18 25.42v5.93h1.94c3.12 0 5.66 2.54 5.66 5.69v53.13c0 3.13-2.54 5.7-5.66 5.7h-73.54c-3.14 0-5.68-2.57-5.68-5.7V97.26c0-3.15 2.54-5.69 5.68-5.69H368.47zm-66.99-20.92H196.86c-5.17 0-9.36-4.2-9.36-9.37V38.93H71.14v22.35c0 5.17-4.2 9.37-9.37 9.37H45.12v27.78l250.28-2.79c1.04-8.69 3.1-17.06 6.08-24.99zm-6.52 46.6-275.17-.02 24.28 214.39c.63 6.16 4.69 12.36 11.44 12.36h328.52c6.85 0 10.63-6.53 11.47-12.62l16.78-114.35c-2.96.24-5.96.37-8.97.37-29.99 0-57.16-12.18-76.82-31.83-17.8-17.82-29.46-41.72-31.53-68.3zm173.26-73.47c-16.6-16.59-39.56-26.86-64.91-26.86-25.35 0-48.31 10.27-64.92 26.86-16.58 16.6-26.86 39.56-26.86 64.91 0 25.35 10.28 48.31 26.86 64.92 16.61 16.58 39.57 26.86 64.92 26.86 25.34 0 48.3-10.29 64.89-26.88 16.61-16.61 26.88-39.56 26.88-64.9 0-25.35-10.27-48.31-26.86-64.91zM327.7 226.85c0-3.64 2.96-6.6 6.6-6.6a6.6 6.6 0 0 1 6.6 6.6v8.53l7.07-4.73a6.583 6.583 0 0 1 9.13 1.8 6.594 6.594 0 0 1-1.81 9.13l-9.13 6.1 9.14 6.07c3.03 2.01 3.85 6.09 1.85 9.12a6.578 6.578 0 0 1-9.12 1.85l-7.13-4.73v8.56c0 3.63-2.95 6.59-6.6 6.59-3.64 0-6.6-2.96-6.6-6.59v-8.53l-7.07 4.72c-3.02 2.03-7.1 1.22-9.13-1.8-2.01-3.01-1.2-7.11 1.81-9.12l9.13-6.1-9.14-6.07a6.607 6.607 0 0 1-1.85-9.13c2-3.03 6.09-3.85 9.12-1.85l7.13 4.73v-8.55zm-73.86 0a6.6 6.6 0 0 1 6.6-6.6c3.64 0 6.6 2.96 6.6 6.6v8.53l7.07-4.73a6.585 6.585 0 0 1 9.13 1.8c2.01 3.02 1.2 7.1-1.81 9.13l-9.13 6.1 9.14 6.07a6.595 6.595 0 0 1 1.85 9.12c-2.01 3.03-6.1 3.86-9.12 1.85l-7.13-4.73v8.56c0 3.63-2.96 6.59-6.6 6.59-3.65 0-6.6-2.96-6.6-6.59v-8.53l-7.07 4.72c-3.02 2.03-7.1 1.22-9.13-1.8-2.01-3.01-1.21-7.11 1.81-9.12l9.13-6.1-9.14-6.07c-3.03-2.01-3.85-6.1-1.85-9.13 2-3.03 6.09-3.85 9.12-1.85l7.13 4.73v-8.55zm-73.85 0a6.6 6.6 0 0 1 6.6-6.6c3.64 0 6.6 2.96 6.6 6.6v8.53l7.07-4.73a6.571 6.571 0 0 1 9.12 1.8c2.02 3.02 1.21 7.1-1.8 9.13l-9.13 6.1 9.14 6.07a6.584 6.584 0 0 1 1.84 9.12c-1.99 3.03-6.09 3.86-9.11 1.85l-7.13-4.73v8.56c0 3.63-2.96 6.59-6.6 6.59-3.65 0-6.6-2.96-6.6-6.59v-8.53l-7.07 4.72c-3.02 2.03-7.1 1.22-9.13-1.8-2.02-3.01-1.21-7.11 1.81-9.12l9.12-6.1-9.13-6.07a6.59 6.59 0 0 1-1.85-9.13c2.01-3.03 6.09-3.85 9.12-1.85l7.13 4.73v-8.55zm-73.87 0c0-3.64 2.96-6.6 6.6-6.6 3.64 0 6.6 2.96 6.6 6.6v8.53l7.07-4.73a6.571 6.571 0 0 1 9.12 1.8c2.02 3.02 1.21 7.1-1.8 9.13l-9.13 6.1 9.13 6.07a6.589 6.589 0 0 1 1.86 9.12c-2.01 3.03-6.1 3.86-9.12 1.85l-7.13-4.73v8.56c0 3.63-2.96 6.59-6.6 6.59-3.64 0-6.6-2.96-6.6-6.59v-8.53l-7.07 4.72a6.56 6.56 0 0 1-9.12-1.8c-2.03-3.01-1.22-7.11 1.8-9.12l9.12-6.1-9.12-6.07a6.583 6.583 0 0 1-1.86-9.13c2.01-3.03 6.09-3.85 9.12-1.85l7.13 4.73v-8.55z"></path>
                  </svg>