<svg xmlns="http://www.w3.org/2000/svg" viewBox="0 0 286.154 286.154" style="enable-background:new 0 0 286.154 286.154" xml:space="preserve"><path d="M263.077 258.462V240h-27.692v-55.385h23.077l1.265-9.051c-.305-.092-30.388-8.885-56.649-30.097v-11.622h46.154l1.117-9.092c-.351-.088-34.735-8.894-61.117-30.069V83.077h18.462l1.874-8.834c-.388-.175-37.68-17.026-56.022-41.751l7.288-11.575.471-.997c.258-.762 2.363-7.606-1.805-13.38C156.443 2.294 151.085 0 143.589 0h-.512c-7.495.097-12.849 2.294-15.905 6.54-4.163 5.774-2.058 12.618-1.805 13.38l7.532 12.175c-18.235 24.942-55.925 41.972-56.317 42.148l1.878 8.834h18.462v11.608c-26.331 21.129-60.771 29.982-61.122 30.069l1.122 9.092h46.154v11.622c-26.202 21.162-56.345 30.009-56.654 30.097l1.269 9.051h23.077V240H23.077v18.462H0v27.692h286.154v-27.692h-23.077zM134.658 11.94c1.237-1.712 4.311-2.672 8.677-2.709 4.334.037 7.403.983 8.649 2.677 1.145 1.546.84 3.798.655 4.703l-6.983 11.082h-4.643l-6.983-11.095c-.193-.896-.488-3.103.628-4.658zm6.222 24.983h4.389c11.598 16.205 30.143 29.022 43.671 36.923H97.214c13.523-7.901 32.072-20.718 43.666-36.923zM180 83.077v9.231h-73.846v-9.231H180zM63.974 124.615c12.009-5.155 26.409-12.692 39.217-23.077h79.768c12.808 10.385 27.212 17.922 39.217 23.077H63.974zm129.872 9.231v9.231h-27.692v-9.231h27.692zm-36.923 0v9.231h-32.308v-9.231h32.308zm-41.538 0v9.231H92.308v-9.231h23.077zm-26.04 18.462h107.46c12.748 10.385 26.225 17.922 37.209 23.077H52.14c10.985-5.156 24.462-12.693 37.205-23.077zm127.578 41.538v-9.231h9.231v9.231h-9.231zm9.231 9.231V240h-9.231v-36.923h9.231zm-32.308 9.231V240h-4.615v-36.923h18.462V240h-4.616v-27.692h-9.231zm-4.615-18.462v-9.231h18.462v9.231h-18.462zm-18.462 0v-9.231H180v9.231h-9.231zm9.231 9.231V240h-9.231v-36.923H180zm-64.615 0V240h-9.231v-36.923h9.231zm-9.231-9.231v-9.231h9.231v9.231h-9.231zm9.23 55.385h55.385v9.231h-55.385v-9.231zm13.847-36.923V240h-4.615v-36.923h36.923V240h-4.615v-27.692h-27.693zm18.461 9.23V240h-9.231v-18.462h9.231zm13.846-27.692h-36.923v-9.231h36.923v9.231zm-78.461 18.462V240h-4.615v-36.923h18.462V240h-4.615v-27.692h-9.232zm-4.615-18.462v-9.231h18.461v9.231H78.462zm-18.462 0v-9.231h9.231v9.231H60zm9.231 9.231V240H60v-36.923h9.231zm-36.923 46.154h73.847v9.231H32.308v-9.231zm64.615 27.692H9.231v-9.231H96.923v9.231zm83.077 0h-73.846v-9.231H180v9.231zm0-27.692h73.846v9.231H180v-9.231zm96.923 27.692h-87.692v-9.231H276.923v9.231z"/><path d="M96.923 110.769h9.231V120h-9.231zM115.385 110.769h9.231V120h-9.231zM133.846 110.769h9.231V120h-9.231zM189.231 161.538h9.231v9.231h-9.231zM124.615 60h9.231v9.231h-9.231z"/></svg>