<svg  xmlns="http://www.w3.org/2000/svg" xml:space="preserve">

 <g>
  <title>Layer 1</title>
  <path d="m486,407.37595l-7.067,0l0,-165.334c0,-14.115 -11.485,-25.6 -25.601,-25.6l-18.279,0l-32.07,-61.809c-4.402,-8.589 -13.133,-13.924 -22.782,-13.924l-18.611,0l-3.92,-92.873a25.553,25.553 0 0 0 -25.574,-24.46l-54.762,0l0,-14.934a8.534,8.534 0 0 0 -17.067,0l0,14.934l-34.133,0l0,-7.467a8.534,8.534 0 0 0 -17.067,0l0,7.467l-34.133,0c-14.115,0 -25.6,11.485 -25.6,25.6l0,6.4l-54.342,0c-13.404,0 -24.623,10.476 -25.54,23.854l-11.292,166.025c-13.882,0.272 -25.094,11.64 -25.094,25.587l0,136.533l-7.466,0c-14.115,0 -25.6,11.484 -25.6,25.6l0,70.4a8.533,8.533 0 1 0 17.066,0.001l0,-70.4c0,-4.705 3.829,-8.533 8.534,-8.533l177.066,0c4.848,0 8.823,-4.066 8.507,-9.066c0.041,-0.635 0.027,3.731 0.027,-52.8c0,-14.115 -11.485,-25.601 -25.6,-25.601l-73.6,0c-14.115,0 -25.6,11.485 -25.6,25.601l0,17.6a8.533,8.533 0 0 0 17.067,0l0,-17.6c0,-4.705 3.828,-8.533 8.533,-8.533l73.6,0c4.705,0 8.533,3.828 8.533,8.533l0,44.8l-144,0l0,-136.534c0,-4.705 3.828,-8.533 8.533,-8.533l98.268,0c1.698,0 3.342,0.5 4.753,1.445l188.334,126.327c3.916,2.625 9.217,1.58 11.84,-2.334c2.626,-3.913 1.58,-9.215 -2.334,-11.841l-188.334,-126.326a25.516,25.516 0 0 0 -14.26,-4.34l-81.666,0l11.212,-164.849c0.305,-4.459 4.045,-7.95 8.513,-7.95l54.341,0l0,76.8a8.534,8.534 0 0 0 17.066,0l0,-100.267c0,-4.705 3.828,-8.533 8.533,-8.533l157.163,0c4.577,0 8.322,3.582 8.523,8.133l3.888,92.133l-69.218,0c-12.308,0 -22.889,8.779 -25.161,20.875l-1.183,6.301a8.539,8.539 0 0 1 -8.386,6.958l-101.483,0c-12.949,0 -23.876,9.696 -25.412,22.508l-2.263,18.069a8.536,8.536 0 0 0 7.407,9.528c4.685,0.59 8.943,-2.732 9.528,-7.407l2.268,-18.114a8.537,8.537 0 0 1 8.472,-7.517l101.484,0c12.307,0 22.887,-8.779 25.16,-20.875l1.183,-6.301a8.538,8.538 0 0 1 8.388,-6.958l104.912,0c3.217,0 6.127,1.778 7.613,4.679l28.011,53.987l-20.874,0a25.567,25.567 0 0 0 -17.262,6.694l-73.512,67.298a8.535,8.535 0 0 0 11.526,12.588l73.498,-67.285a8.515,8.515 0 0 1 5.75,-2.228l58.382,0c4.705,0 8.533,3.828 8.533,8.533l0,165.333l-218.013,0a8.534,8.534 0 0 0 0,17.066l242.546,0c4.705,0 8.533,3.828 8.533,8.533l0,70.4c0,4.713 3.82,8.533 8.533,8.533s8.533,-3.82 8.533,-8.533l0,-70.4c0.001,-14.114 -11.883,-25.597 -25.999,-25.597z"/>
  <path d="m293.334,191.90896a8.534,8.534 0 0 0 -8.534,8.533l0,7.467a8.534,8.534 0 0 0 17.067,0l0,-7.467a8.534,8.534 0 0 0 -8.533,-8.533zm-93.867,35.2l0,7.466a8.534,8.534 0 0 0 17.066,0l0,-7.466a8.534,8.534 0 0 0 -17.066,0zm51.2,-8.533a8.534,8.534 0 0 0 -8.533,8.534l0,7.466a8.534,8.534 0 0 0 17.067,0l0,-7.467a8.535,8.535 0 0 0 -8.534,-8.533zm93.866,-10.667l0,-7.467a8.533,8.533 0 0 0 -17.066,0l0,7.467a8.533,8.533 0 0 0 17.066,0zm-133.333,-117.333l9.6,0a8.534,8.534 0 0 0 0,-17.067l-9.6,0a8.534,8.534 0 0 0 0,17.067zm0,42.666l9.6,0a8.534,8.534 0 0 0 0,-17.067l-9.6,0a8.534,8.534 0 0 0 0,17.067zm100.267,-27.733a8.533,8.533 0 0 0 0,-17.067l-0.963,0a8.533,8.533 0 0 0 0,17.067l0.963,0zm-38.934,0a8.533,8.533 0 0 0 0,-17.067l-12.267,0a8.534,8.534 0 0 0 0,17.067l12.267,0z"/>
 </g>
</svg>