<!-- icon666.com - MILLIONS vector ICONS FREE --><svg viewBox="-26 1 511 511.999" xmlns="http://www.w3.org/2000/svg"><path d="m164.191406 259.363281 66.296875-34.035156 66.300781 34.035156-12.675781-72.144531 54.085938-51.472656-74.699219-10.597656-33.011719-65.300782-33.007812 65.300782-74.699219 10.597656 54.082031 51.472656zm52.988282-106.730469 13.308593-26.335937 13.3125 26.335937 28.867188 4.09375-20.859375 19.851563 5.019531 28.574219-26.335937-13.519532-26.339844 13.519532 5.019531-28.570313-20.863281-19.855469zm0 0"/><path d="m360.84375 266.714844c21.628906-27.894532 34.523438-62.886719 34.523438-100.835938 0-90.945312-73.824219-165.878906-164.878907-165.878906-90.9375 0-164.875 74.804688-164.875 165.878906 0 37.949219 12.894531 72.941406 34.523438 100.835938l-99.636719 172.574218 102.433594-27.445312 27.253906 100.15625 100.300781-167.132812 100.304688 167.132812 27.253906-100.15625 102.433594 27.445312zm-130.355469-236.738282c74.386719 0 134.902344 60.964844 134.902344 135.902344 0 74.382813-60.515625 134.898438-134.902344 134.898438-74.382812 0-134.898437-60.515625-134.898437-134.898438 0-74.9375 60.515625-135.902344 134.898437-135.902344zm-106.472656 345.183594-61.367187 16.441406 58.921874-102.058593c23.070313 20.34375 51.847657 34.351562 83.59375 39.265625l-64.507812 107.492187zm212.945313 0-16.636719 61.140625-64.507813-107.492187c31.746094-4.914063 60.523438-18.921875 83.59375-39.265625l58.921875 102.058593zm0 0"/></svg>