<svg xmlns="http://www.w3.org/2000/svg" fill="currentColor" viewBox="0 0 144.083 144" xml:space="preserve"><path d="M128.793 64.202 107.11 39.967c-1.137-1.273-3.334-1.273-4.471 0l-8.914 9.962-30.599-34.195c-1.139-1.271-3.334-1.272-4.471.001L15.289 64.2a3 3 0 0 0 2.235 5l21.593.001v1.76a3 3 0 0 0 3 3h11.72v22.675h4.719c-9.371.254-19.513.137-28.355.033-5.255-.062-10.218-.119-14.957-.119v6c4.704 0 9.65.058 14.887.118 33.304.392 55.658.124 62.674-6.811 1.529-1.512 2.338-3.366 2.338-5.362 0-4.047-3.721-5.715-6.709-7.056-3.461-1.552-5.152-2.524-5.26-4.484 1.336-2.004 9.563-4.524 20.785-6.657-1.766 1.704-2.883 3.649-2.883 5.846 0 4.508 4.836 5.491 9.514 6.442 7.141 1.452 11.82 2.802 11.82 8.129 0 4.465-1.789 8.356-5.473 11.896-22.154 21.294-99.634 18.473-100.416 18.44l-.238 5.996c.689.027 4.647.173 10.695.173 22.772 0 75.158-2.065 94.115-20.282 4.855-4.665 7.316-10.123 7.316-16.223 0-10.628-10.406-12.744-16.625-14.009-1.463-.297-3.545-.721-4.559-1.136 1.207-2.464 9.57-6.291 18.496-8.369h.838a2.999 2.999 0 0 0 2.234-4.999zM45.117 67.96v-6.505h24.846l2.498 3.254-2.497 3.251H45.117zm32.05 10.79c0 6.213 5.303 8.59 8.811 10.163 1.029.462 2.717 1.219 3.16 1.703-.023.25-.133.559-.553.974-3.359 3.322-15.123 4.583-28.748 5.008V73.96h11.605a3 3 0 0 0 2.379-1.173l2.754-3.586h14.066c-11.58 3.282-13.474 6.505-13.474 9.549zm1.66-15.549a2.913 2.913 0 0 0-.205-.318l-4.801-6.254a3 3 0 0 0-2.379-1.173H59.836v-3.307h-6v3.307h-11.72a3 3 0 0 0-3 3v4.745L24.234 63.2l36.657-40.966 30.6 34.195c1.139 1.271 3.334 1.272 4.471-.001l8.914-9.962 14.973 16.735H78.827z"/></svg>