<svg fill="currentColor" data-name="Layer 1" xmlns="http://www.w3.org/2000/svg" viewBox="0 0 120.47 122.88"><path d="M35.26 26.29c.75 5.36 1.92 9.41 3.9 10.92a30.74 30.74 0 0 1 .57-5.36c1.15-5.72 3-6 4.76-10.27a10.88 10.88 0 0 0 .58-6.71C51.42 16 57.31 25.54 58.79 37.71a13 13 0 0 0 2.71-7.21 17.12 17.12 0 0 1 4.7 10c1 7.16-1.15 11.8-7 13.64 1.3-3 1-5.26-.36-8.29a10.83 10.83 0 0 0-2.26-3.33c-.42 2.94-1.06 5.17-2.14 6a17.63 17.63 0 0 0-.32-2.93c-.63-3.15-1.64-3.32-2.61-5.64a6 6 0 0 1-.32-3.69c-3.48.61-6.72 5.86-7.53 12.54a7.14 7.14 0 0 1-1.49-4 9.43 9.43 0 0 0-2.58 5.49 8.16 8.16 0 0 0 .5 4.86c-4.46-.52-7.46-3-9.36-7-2.71-5.76-2.22-10.05.35-15.8a19.72 19.72 0 0 1 4.14-6.08ZM17.2 0h62.29a17.24 17.24 0 0 1 17.2 17.2v38.35a17.24 17.24 0 0 1-17.2 17.2H46.92L20.81 95.2A2.9 2.9 0 0 1 16 92.81l1.39-20.07h-.19A17.24 17.24 0 0 1 0 55.55V17.2A17.24 17.24 0 0 1 17.2 0Zm89.59 28a16.92 16.92 0 0 1 13.68 16.55v38.33a16.9 16.9 0 0 1-16.85 16.85H103l1.42 20.44a2.54 2.54 0 0 1-4.18 2.1L74 99.07H39.49l17-17.3h36a14.34 14.34 0 0 0 14.3-14.3V27.98ZM79.48 5.8H17.2A11.44 11.44 0 0 0 5.8 17.2v38.35A11.44 11.44 0 0 0 17.2 67h3.53a2.9 2.9 0 0 1 2.69 3.08l-1.13 16.23 21.54-18.52a2.87 2.87 0 0 1 2-.84h33.65a11.44 11.44 0 0 0 11.4-11.4V17.2a11.44 11.44 0 0 0-11.4-11.4Z"/></svg>