<svg width="40" height="40" xmlns="http://www.w3.org/2000/svg" viewBox="0 0 40 40"><g stroke="null" id="svg_3"><circle stroke="null" stroke-dasharray="2,2" id="svg_1" r="18.78001" cy="19.5" cx="20.5" fill="#34e0a1"></circle><path stroke="null" stroke-dasharray="2,2" id="svg_2" d="m32.09694,15.78459l2.26703,-2.4663l-5.02525,0a15.69792,15.69792 0 0 0 -17.66426,0l-5.03843,0l2.26703,2.4663a6.92769,6.92769 0 1 0 9.37603,10.20106l2.22111,2.41639l2.21951,-2.41479a6.90174,6.90174 0 0 0 4.70658,1.84494c3.82604,0 6.93049,-3.10165 6.93049,-6.92769a6.91052,6.91052 0 0 0 -2.25985,-5.1199zm-18.52603,9.80811a4.68821,4.68821 0 1 1 4.68821,-4.68821a4.68821,4.68821 0 0 1 -4.68821,4.68821zm6.92929,-4.82319c0,-3.08528 -2.24427,-5.73248 -5.20376,-6.8646a13.53033,13.53033 0 0 1 10.40631,0c-2.95908,1.13252 -5.20256,3.77972 -5.20256,6.8646zm6.9261,4.82319a4.68821,4.68821 0 1 1 4.68821,-4.68821a4.68821,4.68821 0 0 1 -4.68821,4.68821zm0,-7.14573a2.45792,2.45792 0 1 0 2.45792,2.45752a2.45752,2.45752 0 0 0 -2.45792,-2.45752zm-11.39747,2.45752a2.45792,2.45792 0 1 1 -2.45792,-2.45752a2.45792,2.45792 0 0 1 2.45792,2.45752z"></path></g></svg>