<svg id="Capa_1" enable-background="new 0 0 516.687 516.687" viewBox="0 0 516.687 516.687" xmlns="http://www.w3.org/2000/svg"><g><g><path d="m174.937 43.616c5.522.096 10.076-4.302 10.173-9.824l.412-23.618c.096-5.521-4.302-10.076-9.824-10.173s-10.076 4.302-10.173 9.824l-.412 23.618c-.096 5.522 4.302 10.077 9.824 10.173z"/><path d="m46.748 151.586 23.672.413c5.522.096 10.076-4.302 10.173-9.824s-4.302-10.076-9.824-10.173l-23.672-.413c-5.522-.096-10.076 4.302-10.173 9.824-.096 5.522 4.302 10.076 9.824 10.173z"/><path d="m94.848 69.279c1.918 1.981 4.455 2.999 7.011 3.044 2.562.045 5.142-.89 7.129-2.812 3.968-3.841 4.072-10.171.231-14.14l-16.443-16.989c-3.841-3.968-10.171-4.071-14.14-.231-3.968 3.841-4.072 10.171-.231 14.14z"/><path d="m246.97 74.855c2.555.045 5.127-.884 7.113-2.797l17.025-16.404c3.977-3.832 4.094-10.162.262-14.14-3.832-3.976-10.164-4.094-14.139-.262l-17.024 16.404c-3.977 3.832-4.095 10.162-.263 14.14 1.919 1.99 4.464 3.014 7.026 3.059z"/><path d="m223.707 385.646c12.753 10.636 28.211 15.968 43.662 16.236 20.483.358 40.955-8.181 55.086-25.05 12.012-14.34 17.711-32.488 16.046-51.102-1.665-18.629-10.504-35.494-24.887-47.488-29.65-24.73-73.947-20.764-98.745 8.838-12.016 14.328-17.715 32.475-16.049 51.097 1.668 18.634 10.508 35.493 24.887 47.469zm6.49-85.719c10.113-12.072 24.758-18.183 39.409-17.927 11.042.193 22.089 4.002 31.199 11.6 10.273 8.569 16.586 20.612 17.776 33.912 1.188 13.285-2.881 26.241-11.457 36.478-17.727 21.16-49.401 23.986-70.614 6.294-10.27-8.553-16.581-20.589-17.771-33.889-1.188-13.29 2.879-26.24 11.458-36.468z"/><path d="m481.811 471.133c-1.003-11.165-6.281-21.251-14.859-28.398l-42.661-35.555c-4.133-3.463-9.383-5.105-14.774-4.627-1.837.163-3.607.584-5.288 1.207l-31.599-26.35c2.993-6.831 5.277-13.942 6.862-21.206 39.926-2.392 72.01-35.174 72.718-75.732.681-38.991-27.844-71.838-65.41-77.698.021-17.008-7.225-32.98-20.701-44.977-16.453-14.646-39.503-20.585-61.62-16.247-15.53-21.078-39.37-33.962-65.655-35.836-11.526-24.757-36.523-41.267-64.242-41.751-39.789-.695-72.724 31.05-73.417 70.763-.124 7.127.794 14.073 2.687 20.764-5.916 3.18-11.481 7.222-16.527 12.109-18.756 18.165-26.301 43.621-20.727 68.219-26.395 13.817-34.818 41.288-31.035 64.172 4.164 25.194 24.153 50.89 59.422 51.506l62.109 1.084c3.139 16.855 10.063 32.927 20.303 46.726 3.291 4.434 9.554 5.361 13.989 2.072 4.435-3.291 5.363-9.555 2.072-13.99-25.739-34.686-24.315-82.071 3.464-115.232 33.042-39.466 92.115-44.737 131.686-11.753 33.634 28.025 43.217 76.396 22.788 115.019-2.209 4.177-1.193 9.329 2.435 12.355l35.519 29.619-14.962 17.87-35.58-29.651c-3.62-3.016-8.855-3.098-12.566-.191-18.016 14.107-40.643 21.076-63.722 19.577-5.501-.327-10.266 3.825-10.621 9.337-.354 5.512 3.826 10.266 9.337 10.621 25.233 1.611 50.058-5.092 70.744-19.001l31.622 26.352c-.309 1.743-.41 3.536-.249 5.35.478 5.402 3.032 10.283 7.187 13.742l42.674 35.566c7.623 6.364 16.863 9.554 26.106 9.714 12.243.213 24.484-4.891 32.942-14.975 7.159-8.558 10.551-19.416 9.549-30.574zm-360.65-336.058c.501-28.688 24.309-51.618 53.072-51.116 17.148.299 32.853 9.072 42.254 22.798-26.844 4.457-49.037 20.142-60.49 42.518-11.127-2.873-22.486-3.06-33.314-.727-1.087-4.352-1.603-8.857-1.522-13.473zm220.25 109.964c-48.022-40.029-119.719-33.622-159.822 14.276-16.428 19.611-25.798 44.457-26.384 69.963-.025 1.09-.013 2.178-.007 3.267l-59.864-1.045c-25.385-.443-37.435-19.008-40.04-34.771-2.611-15.793 2.827-37.288 26.743-45.885 2.503-.899 4.544-2.759 5.672-5.166 1.128-2.408 1.251-5.166.341-7.665-7.186-19.734-2.133-41.211 13.187-56.048 15.39-14.903 36.457-19.065 56.389-11.155 7.5 3.483 14.96 8.409 17.307 25.319.686 4.944 4.878 8.539 9.718 8.624.514.009 1.036-.021 1.562-.094 5.47-.76 9.289-5.81 8.529-11.28-2.739-19.731-11.32-29.947-20.37-36.066 9.38-17.328 27.779-29.117 49.842-31.43 21.556-2.259 50.577 5.037 67.378 32.298 2.383 3.866 7.071 5.642 11.419 4.322 17.609-5.349 36.689-1.428 49.789 10.234 10.991 9.784 15.848 23.393 13.327 37.34-.521 2.886.25 5.856 2.11 8.123 1.861 2.267 4.623 3.603 7.555 3.654 31.661.553 56.97 26.693 56.419 58.27-.502 28.771-22.325 52.268-50.162 55.783.296-8.426-.339-16.907-1.939-25.267-4.895-25.591-18.64-48.888-38.699-65.601zm115.519 243.823c-7.766 9.259-21.629 10.494-30.906 2.747l-42.685-35.574c-.022-.019-.059-.049-.067-.142-.006-.08.016-.107.027-.121.006-.007.012-.013.018-.02l27.803-33.206c.016-.019.053-.064.164-.074.015-.001.028-.001.041-.001.076.001.11.029.14.054l42.682 35.572c4.47 3.724 7.22 8.989 7.744 14.825.525 5.831-1.24 11.494-4.961 15.94z"/><path d="m223.505 413.663-.057-.029c-4.906-2.537-10.91-.607-13.449 4.298-2.539 4.904-.593 10.954 4.312 13.493 1.415.732 2.923 1.093 4.415 1.119 3.68.064 7.256-1.914 9.063-5.403 2.538-4.905.62-10.939-4.284-13.478z"/></g></g></svg>