<svg width="22" height="14" viewBox="0 0 22 14" fill="none" xmlns="http://www.w3.org/2000/svg">
<path d="M1.23689 2.86816H0.618447C0.2769 2.86816 0 3.14506 0 3.48661V13.3818C0 13.7233 0.2769 14.0002 0.618447 14.0002H1.23689C1.92003 14.0002 2.47379 13.4465 2.47379 12.7633V4.10506C2.47379 3.42196 1.92003 2.86816 1.23689 2.86816Z" fill="#64A444"/>
<path d="M19.2543 2.86791H13.2435L11.2842 0.909283C10.1657 -0.209859 8.39251 -0.306461 7.15804 0.677984L3.71069 3.43609C3.71069 11.4234 3.71069 9.45322 3.71069 13.0262C5.49174 13.6603 7.35797 14 9.27672 14H11.7505C12.7736 14 13.6059 13.1677 13.6059 12.1447C13.6059 11.9037 13.56 11.673 13.4754 11.461C14.263 11.2466 14.8427 10.5249 14.8427 9.67087C14.8427 9.42988 14.7969 9.1992 14.7123 8.9872C15.4999 8.7728 16.0796 8.05107 16.0796 7.19708C16.0796 6.98025 16.0422 6.77192 15.9734 6.57863H19.2543C20.2774 6.57863 21.1097 5.74637 21.1097 4.72329C21.1097 3.70021 20.2774 2.86791 19.2543 2.86791Z" fill="#64A444"/>
</svg>
